<svg width="64" height="64" viewBox="0 0 64 64" fill="" xmlns="http://www.w3.org/2000/svg">
<path d="M54.7097 0H9.29032C4.16761 0 0 4.16761 0 9.29032V54.7097C0 59.8324 4.16761 64 9.29032 64H54.7097C59.8324 64 64 59.8324 64 54.7097V9.29032C64 4.16761 59.8324 0 54.7097 0ZM61.9355 54.7097C61.9355 58.6939 58.6939 61.9355 54.7097 61.9355H9.29032C5.30606 61.9355 2.06452 58.6939 2.06452 54.7097V9.29032C2.06452 5.30606 5.30606 2.06452 9.29032 2.06452H54.7097C58.6939 2.06452 61.9355 5.30606 61.9355 9.29032V54.7097Z" fill=""/>
<path d="M58.8386 30.9679H33.0321V5.16141C33.0321 4.59134 32.5699 4.12915 31.9999 4.12915C31.4298 4.12915 30.9676 4.59134 30.9676 5.16141V30.9679H5.16116C4.5911 30.9679 4.12891 31.4301 4.12891 32.0001C4.12891 32.5702 4.5911 33.0324 5.16116 33.0324H30.9676V58.8388C30.9676 59.4089 31.4298 59.8711 31.9999 59.8711C32.5699 59.8711 33.0321 59.4089 33.0321 58.8388V33.0324H58.8386C59.4086 33.0324 59.8708 32.5702 59.8708 32.0001C59.8708 31.4301 59.4086 30.9679 58.8386 30.9679Z" fill=""/>
<path d="M8.25784 17.5484H15.4837V24.7742C15.4837 25.3443 15.9458 25.8065 16.5159 25.8065C17.086 25.8065 17.5482 25.3443 17.5482 24.7742V17.5484H24.774C25.344 17.5484 25.8062 17.0862 25.8062 16.5162C25.8062 15.9461 25.344 15.4839 24.774 15.4839H17.5482V8.25809C17.5482 7.68802 17.086 7.22583 16.5159 7.22583C15.9458 7.22583 15.4837 7.68802 15.4837 8.25809V15.4839H8.25784C7.68778 15.4839 7.22559 15.9461 7.22559 16.5162C7.22559 17.0862 7.68778 17.5484 8.25784 17.5484Z" fill=""/>
<path d="M39.2256 17.5484H55.7417C56.3118 17.5484 56.774 17.0862 56.774 16.5161C56.774 15.9461 56.3118 15.4839 55.7417 15.4839H39.2256C38.6556 15.4839 38.1934 15.9461 38.1934 16.5161C38.1934 17.0862 38.6556 17.5484 39.2256 17.5484Z" fill=""/>
<path d="M55.7417 46.4517H39.2256C38.6556 46.4517 38.1934 46.9139 38.1934 47.4839C38.1934 48.054 38.6556 48.5162 39.2256 48.5162H55.7417C56.3118 48.5162 56.774 48.054 56.774 47.4839C56.774 46.9139 56.3118 46.4517 55.7417 46.4517Z" fill=""/>
<path d="M23.4403 40.5604C23.0372 40.1573 22.3836 40.1573 21.9805 40.5604L16.5168 46.0241L11.0532 40.5605C10.6501 40.1574 9.99653 40.1574 9.59344 40.5605C9.19021 40.9636 9.19021 41.6172 9.59344 42.0203L15.0571 47.4839L9.59344 52.9475C9.19021 53.3506 9.19021 54.0041 9.59344 54.4072C9.79485 54.6089 10.0591 54.7097 10.3232 54.7097C10.5874 54.7097 10.8516 54.6089 11.0532 54.4074L16.5168 48.9436L21.9804 54.4072C22.182 54.6088 22.4461 54.7096 22.7103 54.7096C22.9746 54.7096 23.2387 54.6088 23.4403 54.4072C23.8435 54.0041 23.8435 53.3506 23.4403 52.9475L17.9765 47.4839L23.4402 42.0203C23.8434 41.6172 23.8434 40.9635 23.4403 40.5604Z" fill=""/>
<path d="M50.5803 41.2904C50.5803 39.5828 49.1911 38.1936 47.4835 38.1936C45.7759 38.1936 44.3867 39.5828 44.3867 41.2904C44.3867 42.998 45.7759 44.3871 47.4835 44.3871C49.1911 44.3871 50.5803 42.998 50.5803 41.2904ZM46.4512 41.2904C46.4512 40.7212 46.9143 40.2581 47.4835 40.2581C48.0527 40.2581 48.5158 40.7212 48.5158 41.2904C48.5158 41.8595 48.0527 42.3226 47.4835 42.3226C46.9143 42.3226 46.4512 41.8595 46.4512 41.2904Z" fill=""/>
<path d="M47.4835 50.5806C45.7759 50.5806 44.3867 51.9697 44.3867 53.6773C44.3867 55.385 45.7759 56.7741 47.4835 56.7741C49.1911 56.7741 50.5803 55.385 50.5803 53.6773C50.5803 51.9697 49.1911 50.5806 47.4835 50.5806ZM47.4835 54.7096C46.9143 54.7096 46.4512 54.2465 46.4512 53.6773C46.4512 53.1082 46.9143 52.6451 47.4835 52.6451C48.0527 52.6451 48.5158 53.1082 48.5158 53.6773C48.5158 54.2465 48.0527 54.7096 47.4835 54.7096Z" fill=""/>
</svg>
