<svg width="15" height="17" viewBox="0 0 15 17" fill="none" xmlns="http://www.w3.org/2000/svg">
<path d="M11.5275 12.9421C11.8793 13.154 12.2817 13.267 12.6923 13.2692C13.3041 13.2685 13.8906 13.0251 14.3232 12.5925C14.7559 12.1599 14.9992 11.5734 15 10.9615C14.9972 10.7619 14.9681 10.5634 14.9135 10.3714L13.5081 11.7773C13.4016 11.8875 13.2743 11.9754 13.1335 12.0359C12.9928 12.0964 12.8414 12.1282 12.6882 12.1295C12.5349 12.1309 12.383 12.1017 12.2412 12.0436C12.0994 11.9856 11.9706 11.9 11.8622 11.7916C11.7539 11.6833 11.6682 11.5545 11.6102 11.4126C11.5522 11.2708 11.523 11.1189 11.5243 10.9657C11.5257 10.8125 11.5575 10.6611 11.618 10.5203C11.6784 10.3795 11.7663 10.2522 11.8765 10.1458L13.2825 8.73982C13.0904 8.68543 12.892 8.65653 12.6923 8.65385C12.0805 8.65462 11.494 8.89799 11.0614 9.33061C10.6288 9.76322 10.3854 10.3497 10.3846 10.9615C10.3867 11.3724 10.4997 11.775 10.7117 12.1269L7.5 15.3375L8.31577 16.1539L11.5275 12.9421Z" fill="#444444"/>
<path fill-rule="evenodd" clip-rule="evenodd" d="M12.6923 1.15385H10.3846V0H9.23077V1.15385H4.61538V0H3.46154V1.15385H1.15385C0.847827 1.15385 0.554342 1.27541 0.337954 1.4918C0.121566 1.70819 0 2.00167 0 2.30769V13.8462C0 14.1522 0.121566 14.4457 0.337954 14.662C0.554342 14.8784 0.847827 15 1.15385 15H5.76923V13.8462H1.15385V2.30769H3.46154V3.46154H4.61538V2.30769H9.23077V3.46154H10.3846V2.30769H12.6923V6.92308H13.8462V2.30769C13.8462 2.00167 13.7246 1.70819 13.5082 1.4918C13.2918 1.27541 12.9983 1.15385 12.6923 1.15385Z" fill="#444444"/>
</svg>
