<svg height="512pt" viewBox="-9 0 511 512" width="512pt" xmlns="http://www.w3.org/2000/svg"><path d="m418.8125 0c-41.355469 0-75 33.648438-75 75s33.644531 75 75 75c41.351562 0 75-33.648438 75-75s-33.648438-75-75-75zm0 0"/><path d="m11.941406 190.253906-11.441406 34.351563 32.386719-16.1875c36.796875-18.429688 66.265625-4.117188 85.367187 11.148437 4.628906 3.691406 6.417969 9.960938 4.746094 15.6875l-65.417969 52.71875 20.886719 10.445313c33.632812 16.816406 68.292969 16.066406 100.242188-2.226563 10.382812-5.890625 23.675781-2.078125 27.566406 9.5625 3.957031 11.910156-4.847656 24.246094-17.476563 24.246094h-49.832031l25.601562 25.605469c10.761719 10.761719 14.898438 12.808593 20.328126 16.53125 14.699218-19.585938 35.972656-33.511719 60.28125-39.144531l78.144531-214.871094c-5.988281-13.191406-9.511719-27.71875-9.511719-43.121094 0-3.957031.738281-7.710938 1.167969-11.554688-8.917969-2.234374-18.179688-3.445312-27.65625-3.445312-37.660157 0-72.683594 18.660156-93.703125 49.9375-3.007813 2.90625-8.5 19.730469-24.960938 14.589844l-18.429687-5.726563c-57.683594-17.902343-119.175781 14.132813-138.289063 71.453125zm0 0"/><path d="m344.148438 148.65625-65.949219 181.34375h50.613281c14.78125 0 28.835938 3.464844 41.824219 9.148438l58.25-160.167969c-3.363281.328125-6.625 1.019531-10.074219 1.019531-29.203125 0-55.613281-12.03125-74.664062-31.34375zm0 0"/><path d="m463.8125 497c0-44.808594-28.976562-86.640625-71.222656-101.039062-13.59375-22.339844-37.472656-35.960938-63.777344-35.960938h-60c-36.207031 0-66.40625 25.824219-73.390625 60h118.390625v30h-164.679688c-9.5 12.566406-15.320312 30.066406-15.320312 47v15h330zm0 0"/></svg>