<svg width="15" height="15" viewBox="0 0 15 15" fill="none" xmlns="http://www.w3.org/2000/svg">
<path d="M8.62195 10.4114C8.58375 10.6453 8.52305 10.8713 8.44125 11.0873L9.17508 11.7523C9.07219 11.9688 8.955 12.177 8.81977 12.3724L7.87758 12.0687C7.72898 12.2503 7.56258 12.4165 7.38094 12.5651L7.68469 13.5073C7.48922 13.6425 7.28109 13.7595 7.06453 13.8626L6.39961 13.1287C6.18352 13.2105 5.95781 13.2712 5.72367 13.3095L5.51437 14.2788C5.39602 14.2882 5.27719 14.2969 5.15625 14.2969C5.03531 14.2969 4.91648 14.2882 4.79789 14.2788L4.58859 13.3095C4.35469 13.2712 4.12875 13.2105 3.91266 13.1287L3.24773 13.8626C3.03117 13.7597 2.82305 13.6425 2.62758 13.5073L2.93133 12.5651C2.74969 12.4165 2.58352 12.2501 2.43492 12.0687L1.49273 12.3724C1.3575 12.177 1.24055 11.9688 1.13742 11.7523L1.87125 11.0873C1.78945 10.8713 1.72875 10.6455 1.69055 10.4114L0.721172 10.2021C0.711797 10.0835 0.703125 9.96469 0.703125 9.84375C0.703125 9.72281 0.711797 9.60398 0.721172 9.48539L1.69055 9.27609C1.72875 9.04219 1.78945 8.81625 1.87125 8.60016L1.13742 7.93523C1.24031 7.71867 1.3575 7.51055 1.49273 7.31508L2.43492 7.61883C2.58352 7.43719 2.74992 7.27102 2.93156 7.12242L2.62781 6.18023C2.82328 6.045 3.03141 5.92805 3.24797 5.82492L3.91289 6.55875C4.12898 6.47695 4.35469 6.41625 4.58883 6.37805L4.79813 5.40867C4.91648 5.3993 5.03531 5.39062 5.15625 5.39062C5.27719 5.39062 5.39602 5.3993 5.51461 5.40867L5.72391 6.37805C5.95781 6.41625 6.18375 6.47695 6.39984 6.55875L7.06477 5.82492C7.28133 5.92781 7.48945 6.045 7.68492 6.18023L7.38117 7.12242C7.56281 7.27102 7.72898 7.43742 7.87758 7.61906L8.81977 7.31531C8.955 7.51078 9.07195 7.71891 9.17508 7.93547L8.44125 8.60039C8.52305 8.81648 8.58375 9.04219 8.62195 9.27633L9.59133 9.48563C9.6007 9.60398 9.60938 9.72281 9.60938 9.84375C9.60938 9.96469 9.6007 10.0835 9.59133 10.2021L8.62195 10.4114ZM5.15625 7.5C3.8618 7.5 2.8125 8.5493 2.8125 9.84375C2.8125 11.1382 3.8618 12.1875 5.15625 12.1875C6.4507 12.1875 7.5 11.1382 7.5 9.84375C7.5 8.5493 6.4507 7.5 5.15625 7.5Z" fill="#444444"/>
<path d="M11.8732 3.82148C11.8366 3.94266 11.7888 4.05891 11.73 4.16836L12.1001 4.87758C11.9752 5.03555 11.8327 5.17805 11.6747 5.30297L10.9655 4.93289C10.856 4.99195 10.7398 5.03977 10.6186 5.07609L10.3786 5.84016C10.2797 5.85187 10.1798 5.85938 10.0781 5.85938C9.97641 5.85938 9.87656 5.85188 9.77789 5.84039L9.53789 5.07633C9.41672 5.04 9.30047 4.99195 9.19102 4.93313L8.4818 5.3032C8.32383 5.17828 8.18133 5.03578 8.05641 4.87781L8.42648 4.16859C8.36742 4.05914 8.31961 3.94289 8.28328 3.82172L7.51922 3.58172C7.5075 3.48281 7.5 3.38297 7.5 3.28125C7.5 3.17953 7.5075 3.07969 7.51898 2.98102L8.28305 2.74102C8.31937 2.61984 8.36742 2.50359 8.42625 2.39414L8.05617 1.68492C8.18109 1.52695 8.32359 1.38445 8.48156 1.25953L9.19078 1.62961C9.30023 1.57055 9.41648 1.52273 9.53766 1.48641L9.77766 0.722344C9.87656 0.710625 9.97641 0.703125 10.0781 0.703125C10.1798 0.703125 10.2797 0.710625 10.3784 0.722109L10.6184 1.48617C10.7395 1.5225 10.8558 1.57055 10.9652 1.62938L11.6745 1.2593C11.8324 1.38422 11.9749 1.52672 12.0998 1.68469L11.7298 2.39391C11.7888 2.50336 11.8366 2.61961 11.873 2.74078L12.637 2.98078C12.6487 3.07969 12.6562 3.17953 12.6562 3.28125C12.6562 3.38297 12.6487 3.48281 12.6373 3.58148L11.8732 3.82148ZM10.0781 2.34375C9.56039 2.34375 9.14062 2.76352 9.14062 3.28125C9.14062 3.79898 9.56039 4.21875 10.0781 4.21875C10.5959 4.21875 11.0156 3.79898 11.0156 3.28125C11.0156 2.76352 10.5959 2.34375 10.0781 2.34375Z" fill="#444444"/>
<path d="M13.767 9.11039C13.7309 9.24047 13.68 9.36375 13.6148 9.47883L13.848 9.96961C13.7421 10.1048 13.6205 10.2265 13.4852 10.3324L12.9945 10.0992C12.8796 10.1644 12.7561 10.2152 12.626 10.2513L12.4437 10.7641C12.3595 10.7745 12.2745 10.7812 12.1875 10.7812C12.1005 10.7812 12.0155 10.7745 11.9313 10.7641L11.749 10.2513C11.6189 10.2152 11.4956 10.1644 11.3805 10.0992L10.8898 10.3324C10.7545 10.2265 10.6329 10.1048 10.527 9.96961L10.7602 9.47883C10.695 9.36398 10.6441 9.24047 10.608 9.11063L10.0952 8.92828C10.0849 8.84391 10.0781 8.75883 10.0781 8.67188C10.0781 8.58492 10.0849 8.49984 10.0952 8.4157L10.608 8.23336C10.6441 8.10328 10.695 7.98 10.7602 7.86516L10.527 7.37438C10.6329 7.23914 10.7545 7.1175 10.8898 7.01156L11.3805 7.24477C11.4954 7.17961 11.6189 7.12875 11.749 7.09266L11.9313 6.57984C12.0155 6.5693 12.1005 6.5625 12.1875 6.5625C12.2745 6.5625 12.3595 6.5693 12.4437 6.57961L12.626 7.09242C12.7561 7.12852 12.8794 7.17937 12.9945 7.24453L13.4852 7.01133C13.6205 7.11727 13.7421 7.23891 13.848 7.37414L13.6148 7.86492C13.68 7.97977 13.7309 8.10328 13.767 8.23336L14.2798 8.4157C14.2901 8.49984 14.2969 8.58492 14.2969 8.67188C14.2969 8.75883 14.2901 8.84391 14.2798 8.92805L13.767 9.11039ZM12.1875 7.96875C11.7991 7.96875 11.4844 8.28352 11.4844 8.67188C11.4844 9.06023 11.7991 9.375 12.1875 9.375C12.5759 9.375 12.8906 9.06023 12.8906 8.67188C12.8906 8.28352 12.5759 7.96875 12.1875 7.96875Z" fill="#444444"/>
<path d="M14.3428 1.17658L12.941 0.896267L12.6607 2.29783L13.1203 2.38994L13.2466 1.759C13.4738 2.2315 13.5938 2.75228 13.5938 3.28127C13.5938 4.08939 13.327 4.84924 12.8227 5.47853L13.1885 5.77174C13.7522 5.06838 14.0625 4.18408 14.0625 3.28127C14.0625 2.66744 13.9207 2.06228 13.6509 1.51619L14.2509 1.63619L14.3428 1.17658Z" fill="#444444"/>
<path d="M5.55633 3.11555L5.22492 3.44696L5.54344 3.76548C5.41453 3.75727 5.28539 3.75001 5.15625 3.75001C3.34313 3.75001 1.63641 4.54946 0.473907 5.94352L0.833907 6.24375C1.90711 4.9568 3.48235 4.21876 5.15625 4.21876C5.27555 4.21876 5.39461 4.22555 5.51367 4.23305L5.22492 4.5218L5.55633 4.85321L6.42516 3.98438L5.55633 3.11555Z" fill="#444444"/>
</svg>
