<svg width="15" height="11" viewBox="0 0 15 11" fill="none" xmlns="http://www.w3.org/2000/svg">
<path d="M6.03777 7.78003L10.7282 1.4259C10.7992 1.32914 10.9014 1.25989 11.0176 1.22988C11.1338 1.19987 11.2568 1.21095 11.3658 1.26124C11.4748 1.31153 11.563 1.39794 11.6155 1.50583C11.6681 1.61372 11.6817 1.73646 11.6541 1.85326L11.6316 1.92674L8.73012 9.27353C8.65119 9.46974 8.533 9.64775 8.38279 9.79663C8.23258 9.94551 8.05353 10.0621 7.85662 10.1393C7.65971 10.2165 7.44911 10.2526 7.23774 10.2454C7.02637 10.2383 6.81869 10.188 6.62746 10.0977C6.43622 10.0074 6.26547 9.87891 6.12567 9.72021C5.98588 9.56151 5.87999 9.37591 5.81452 9.17481C5.74905 8.97371 5.72537 8.76135 5.74493 8.55076C5.7645 8.34018 5.8269 8.13582 5.92831 7.95022L5.98004 7.86325L6.03702 7.78078L10.7282 1.4259L6.03702 7.78078L6.03777 7.78003ZM8.88682 5.81419L6.94197 8.4488L6.91198 8.49529C6.88463 8.5444 6.86725 8.59843 6.86081 8.65427C6.85438 8.71012 6.85903 8.76668 6.87449 8.82073C6.88995 8.87477 6.91592 8.92523 6.95091 8.96923C6.98591 9.01322 7.02924 9.04987 7.07842 9.07709L7.12866 9.10108C7.22307 9.13857 7.32775 9.1412 7.42392 9.1085C7.5201 9.0758 7.60148 9.00991 7.65348 8.92265L7.68347 8.86042L8.88682 5.81419ZM12.4556 1.77753C13.0344 2.24702 13.5447 2.79515 13.9716 3.40599C14.3645 3.96755 14.7439 4.64758 14.9613 5.20389C14.9882 5.27266 15.0013 5.34607 14.9999 5.41991C14.9985 5.49375 14.9825 5.56659 14.9529 5.63426C14.9233 5.70193 14.8807 5.76311 14.8274 5.81431C14.7742 5.86551 14.7114 5.90572 14.6426 5.93265C14.5739 5.95957 14.5005 5.97269 14.4266 5.97125C14.3528 5.96981 14.2799 5.95384 14.2123 5.92425C14.1446 5.89467 14.0834 5.85204 14.0322 5.7988C13.981 5.74557 13.9408 5.68278 13.9139 5.614C13.8305 5.40608 13.7359 5.20285 13.6305 5.00521L12.0935 5.89216C11.9701 5.96258 11.8247 5.98368 11.6863 5.95124C11.548 5.91879 11.4271 5.8352 11.3479 5.71726C11.2687 5.59932 11.2371 5.45578 11.2594 5.31548C11.2817 5.17518 11.3563 5.04853 11.4682 4.96097L11.5319 4.91823L13.0449 4.04403L12.8725 3.80861C12.6335 3.49653 12.3681 3.20555 12.0792 2.9389L12.3642 2.21614C12.3926 2.14416 12.4144 2.07069 12.4294 1.99721L12.4474 1.887L12.4549 1.77753H12.4556ZM10.4838 0.607177C10.3704 0.673139 10.2677 0.756071 10.1794 0.853094L10.0939 0.958059L9.68905 1.50763C9.16294 1.32495 8.61664 1.20663 8.06209 1.15524V3.15857C8.06205 3.30104 8.00793 3.43819 7.91066 3.54229C7.8134 3.64639 7.68025 3.70969 7.53811 3.7194C7.39597 3.72912 7.25544 3.68451 7.14493 3.5946C7.03441 3.5047 6.96214 3.37619 6.94272 3.23505L6.93747 3.15857V1.14175C5.69987 1.22976 4.50963 1.65329 3.49462 2.36684C2.88282 2.79569 2.349 3.35801 1.9059 4.02003L3.46688 4.92123C3.59017 4.99253 3.68181 5.10795 3.72331 5.2442C3.7648 5.38044 3.75304 5.52736 3.69042 5.65527C3.62779 5.78319 3.51896 5.88257 3.38591 5.93336C3.25285 5.98415 3.10547 5.98255 2.97354 5.9289L2.90457 5.89516L1.34959 4.99771C1.25362 5.19714 1.16515 5.40257 1.08268 5.61325C1.02683 5.74962 0.919684 5.85861 0.784292 5.91679C0.6489 5.97496 0.496083 5.97766 0.358721 5.92431C0.221359 5.87095 0.11043 5.76581 0.0497999 5.6315C-0.0108296 5.49719 -0.0163137 5.34445 0.0345277 5.20614C0.639575 3.65041 1.59401 2.32485 2.84909 1.4454C3.94844 0.674748 5.22448 0.193967 6.55904 0.047576C7.89359 -0.0988151 9.24351 0.0939177 10.4838 0.607926V0.607177Z" fill="#444444"/>
</svg>
