<svg width="25" height="25" viewBox="0 0 25 25" fill="" xmlns="http://www.w3.org/2000/svg">
<path fill-rule="evenodd" clip-rule="evenodd" d="M17.5524 0H7.44764C3.34099 0 0 3.34099 0 7.44764V17.5524C0 21.659 3.34099 25 7.44764 25H17.5524C21.659 25 25 21.659 25 17.5524V7.44764C25 3.34099 21.659 0 17.5524 0ZM22.4846 17.552C22.4846 20.2762 20.2762 22.4846 17.552 22.4846H7.44728C4.72309 22.4846 2.51465 20.2762 2.51465 17.552V7.44728C2.51465 4.72304 4.72309 2.51465 7.44728 2.51465H17.552C20.2762 2.51465 22.4846 4.72304 22.4846 7.44728V17.552ZM6.0336 12.4994C6.0336 8.93419 8.93419 6.0336 12.4995 6.0336C16.0648 6.0336 18.9654 8.93415 18.9654 12.4994C18.9654 16.0647 16.0648 18.9653 12.4995 18.9653C8.93419 18.9653 6.0336 16.0647 6.0336 12.4994ZM12.5003 16.4511C10.3182 16.4511 8.54936 14.6823 8.54936 12.5003C8.54936 10.3182 10.3183 8.54936 12.5003 8.54936C14.6823 8.54936 16.4511 10.3182 16.4511 12.5003C16.4511 14.6822 14.6822 16.4511 12.5003 16.4511ZM20.5281 6.08261C20.5281 6.9383 19.8345 7.63197 18.9788 7.63197C18.1231 7.63197 17.4294 6.9383 17.4294 6.08261C17.4294 5.22692 18.1231 4.53325 18.9788 4.53325C19.8345 4.53325 20.5281 5.22692 20.5281 6.08261Z" fill=""/>
</svg>
