<svg width="120" height="40" viewBox="0 0 120 40" fill="" xmlns="http://www.w3.org/2000/svg">
<path d="M0.0592346 30.9678V29.8752C1.25883 29.7752 2.02286 29.5539 2.35133 29.2112C2.67978 28.8684 2.84401 28.1258 2.84401 26.9834V5.56201C2.84401 4.40525 2.67978 3.66264 2.35133 3.33418C2.03715 2.99144 1.27311 2.7558 0.0592346 2.62728V1.57764C2.01571 1.77756 3.49379 1.87753 4.49346 1.87753C5.47884 1.87753 6.92836 1.77756 8.842 1.57764V2.62728C7.6424 2.7558 6.88551 2.99144 6.57133 3.33418C6.27143 3.66264 6.12148 4.40525 6.12148 5.56201V26.8977C6.12148 27.9116 6.27143 28.5972 6.57133 28.9542C6.87124 29.2969 7.45675 29.4683 8.32788 29.4683H10.7699C12.1695 29.4683 13.1834 29.0969 13.8118 28.3543C14.4543 27.5974 15.0185 26.1123 15.504 23.8987H16.3395L15.5469 30.9678H0.0592346Z" fill=""/>
<path d="M18.503 20.621C18.503 17.3935 19.1314 14.7873 20.3882 12.8023C21.6448 10.8172 23.2943 9.82471 25.3364 9.82471C27.3216 9.82471 28.871 10.7173 29.9849 12.5024C31.0989 14.2731 31.6986 16.8152 31.7843 20.1284H21.652C21.6949 22.0706 21.7805 23.5415 21.9091 24.5411C22.0519 25.5409 22.2875 26.4691 22.6159 27.3259C22.9444 28.1685 23.4014 28.8183 23.9869 29.2753C24.5867 29.7322 25.258 29.9608 26.0005 29.9608C27.2143 29.9608 28.207 29.461 28.9781 28.4613C29.7635 27.4617 30.2491 26.0479 30.4347 24.2199H31.7843C31.5701 26.5048 30.9275 28.2756 29.8564 29.5324C28.7853 30.7748 27.3715 31.396 25.615 31.396C23.4443 31.396 21.7163 30.4249 20.431 28.4827C19.1457 26.5405 18.503 23.92 18.503 20.621ZM21.7377 18.5432H28.7211C28.5497 13.4877 27.4073 10.96 25.2936 10.96C23.2657 10.96 22.0804 13.4877 21.7377 18.5432Z" fill=""/>
<path d="M34.6761 33.6026C34.6761 32.4886 34.9475 31.5533 35.4902 30.7964C36.0329 30.0395 36.8897 29.4111 38.0608 28.9112C37.4324 28.5543 36.9826 28.183 36.7112 27.7974C36.4399 27.4117 36.3041 26.9334 36.3041 26.3622C36.3041 24.7484 37.5324 23.5488 39.9887 22.7633C38.689 22.2778 37.6894 21.4995 36.9897 20.4284C36.3041 19.3431 35.9614 18.0435 35.9614 16.5297C35.9614 14.4448 36.5112 12.8167 37.6109 11.6456C38.7106 10.4603 40.2386 9.86768 42.1951 9.86768C43.5661 9.86768 44.7657 10.2461 45.7938 11.003H50.4423V12.7596L47.1005 12.631C47.6576 13.7307 47.936 14.9588 47.936 16.3155C47.936 18.5577 47.2648 20.2857 45.9223 21.4995C45.4796 21.8708 45.0441 22.1707 44.6156 22.3992C44.1872 22.6134 43.4946 22.8848 42.5378 23.2131L41.531 23.556C40.36 23.9559 39.5745 24.2986 39.1747 24.5841C38.789 24.8555 38.5963 25.1982 38.5963 25.6124C38.5963 26.1264 38.8248 26.4978 39.2818 26.7263C39.7387 26.9405 40.5314 27.0547 41.6595 27.069C42.445 27.0833 43.3376 27.1904 44.3372 27.3903C45.3369 27.576 46.0795 27.776 46.565 27.9902C47.5505 28.4042 48.3074 29.047 48.8358 29.9181C49.3783 30.775 49.6497 31.796 49.6497 32.9813C49.6497 34.9521 48.9429 36.5587 47.529 37.8011C46.1152 39.0436 44.2729 39.6648 42.0023 39.6648C39.803 39.6648 38.0321 39.1079 36.6898 37.9939C35.3474 36.88 34.6761 35.4162 34.6761 33.6026ZM36.2185 33.9453C36.2185 35.2021 36.7469 36.2374 37.8038 37.0513C38.8747 37.8797 40.2315 38.2938 41.8737 38.2938C43.5447 38.2938 44.8656 37.9153 45.8367 37.1586C46.8221 36.4017 47.3147 35.3734 47.3147 34.0738C47.3147 32.8171 46.8221 31.8602 45.8367 31.2033C44.8656 30.5464 43.459 30.2179 41.6167 30.2179C39.903 30.2179 38.5749 30.5393 37.6323 31.1819C36.6898 31.8388 36.2185 32.76 36.2185 33.9453ZM38.8533 16.2298C38.8533 18.0578 39.1176 19.4645 39.646 20.4498C40.1743 21.4352 40.9312 21.9279 41.9167 21.9279C42.902 21.9279 43.6589 21.4352 44.1872 20.4498C44.73 19.4645 45.0013 18.0721 45.0013 16.2726C45.0013 14.5733 44.7371 13.2666 44.2087 12.3526C43.6803 11.4243 42.9448 10.9602 42.0023 10.9602C41.0169 10.9602 40.2457 11.4314 39.6888 12.374C39.1318 13.3165 38.8533 14.6018 38.8533 16.2298Z" fill=""/>
<path d="M54.6837 28.4401C53.4128 26.4265 52.7772 23.8202 52.7772 20.6213C52.7772 17.4224 53.427 14.809 54.7266 12.7811C56.0261 10.7532 57.7112 9.73926 59.7821 9.73926C61.4671 9.73926 62.8738 10.439 64.0021 11.8385C64.7303 12.7668 65.323 14.0378 65.78 15.6516C66.237 17.2511 66.4654 18.8934 66.4654 20.5784C66.4654 23.7489 65.8228 26.3551 64.5376 28.3973C63.2523 30.4394 61.6099 31.4605 59.6106 31.4605C57.597 31.4605 55.9547 30.4538 54.6837 28.4401ZM56.0119 20.7071C56.0119 27.1049 57.2115 30.3038 59.6106 30.3038C60.7817 30.3038 61.6742 29.4898 62.2883 27.8618C62.9023 26.2195 63.2094 23.8345 63.2094 20.7071C63.2094 14.1521 62.0241 10.8746 59.6534 10.8746C58.4681 10.8746 57.5613 11.7172 56.9329 13.4023C56.3188 15.0875 56.0119 17.5224 56.0119 20.7071Z" fill=""/>
<path d="M70.0428 16.401C70.0428 11.774 70.9068 8.08238 72.6348 5.32616C74.3628 2.55565 76.6764 1.17041 79.5754 1.17041C80.7463 1.17041 81.7532 1.37034 82.5958 1.77021C83.4527 2.17008 84.2452 2.81986 84.9736 3.71955L86.1518 1.27752H86.8586V9.86749H85.9804C85.4949 7.38261 84.7594 5.54751 83.7739 4.36219C82.8028 3.17688 81.5319 2.58422 79.9609 2.58422C77.8759 2.58422 76.2765 3.7624 75.1626 6.11875C74.063 8.4751 73.5132 11.874 73.5132 16.3153C73.5132 20.5425 74.0701 23.8056 75.184 26.1048C76.2979 28.4041 77.8902 29.5537 79.9609 29.5537C81.6747 29.5537 83.0457 28.8111 84.0738 27.3259C85.1164 25.8407 85.7018 23.7628 85.8305 21.0923H87.1156C87.0158 24.3626 86.2732 26.926 84.8879 28.7825C83.5169 30.6248 81.6818 31.5459 79.3826 31.5459C76.5692 31.5459 74.3057 30.1607 72.592 27.3901C70.8925 24.6197 70.0428 20.9566 70.0428 16.401Z" fill=""/>
<path d="M91.1643 25.7409C91.1643 23.4988 92.0426 21.7637 93.7991 20.5355C95.5558 19.2645 97.6621 18.4433 100.118 18.0721V14.9445C100.118 13.6022 99.9043 12.6168 99.4759 11.9884C99.0474 11.36 98.3834 11.0459 97.4836 11.0459C96.6696 11.0459 96.0199 11.2672 95.5343 11.7099C95.0488 12.1526 94.806 12.7381 94.806 13.4664V13.9806C94.8345 14.1805 94.8488 14.4304 94.8488 14.7303C94.8488 15.3159 94.7132 15.7729 94.4418 16.1013C94.1705 16.4155 93.792 16.5726 93.3065 16.5726C92.4639 16.5726 92.0426 16.0799 92.0426 15.0944C92.0426 13.6664 92.6067 12.4382 93.7349 11.41C94.8773 10.3818 96.2269 9.86768 97.7835 9.86768C98.8261 9.86768 99.7614 10.1105 100.59 10.596C101.432 11.0673 102.061 11.7313 102.475 12.5882C102.946 13.4308 103.182 14.8661 103.182 16.8939V26.0622C103.182 27.5046 103.275 28.5186 103.46 29.1041C103.66 29.6753 104.003 29.9609 104.488 29.9609C104.646 29.9609 104.938 29.918 105.367 29.8324V30.9677C104.553 31.1676 103.867 31.2676 103.31 31.2676C102.453 31.2676 101.804 30.982 101.361 30.4108C100.933 29.8396 100.661 28.9255 100.547 27.6689C99.9756 28.9827 99.3401 29.9253 98.6404 30.4965C97.9407 31.0677 97.0552 31.3533 95.9842 31.3533C94.556 31.3533 93.3922 30.8392 92.4924 29.811C91.607 28.7685 91.1643 27.4117 91.1643 25.7409ZM94.3133 25.4839C94.3133 26.7406 94.5489 27.7188 95.0202 28.4186C95.4915 29.1183 96.1484 29.4682 96.991 29.4682C98.062 29.4682 98.8475 28.9542 99.3472 27.9259C99.8614 26.8833 100.118 25.2339 100.118 22.9775V19.2073C98.0906 19.6644 96.6125 20.3928 95.6843 21.3924C94.7702 22.3778 94.3133 23.7415 94.3133 25.4839Z" fill=""/>
<path d="M107.552 31.0963V30.218C108.566 30.1467 109.215 29.9753 109.501 29.7039C109.787 29.4184 109.929 28.8042 109.929 27.8618V14.1307C109.929 12.9739 109.858 12.2527 109.715 11.9671C109.472 11.5672 108.951 11.3673 108.152 11.3673C108.08 11.3673 108.002 11.3673 107.916 11.3673C107.787 11.3673 107.68 11.3815 107.594 11.4101V10.6175C109.708 10.3033 111.258 9.95346 112.243 9.56787C112.429 10.8531 112.564 12.2384 112.65 13.7236C112.978 12.4526 113.493 11.4744 114.192 10.7889C114.906 10.0891 115.749 9.73924 116.72 9.73924C117.605 9.73924 118.327 10.0534 118.884 10.6818C119.441 11.3101 119.719 12.1384 119.719 13.1667C119.719 13.8522 119.569 14.3948 119.269 14.7947C118.969 15.1945 118.562 15.3945 118.048 15.3945C117.605 15.3945 117.241 15.2588 116.956 14.9874C116.684 14.7019 116.549 14.3519 116.549 13.9379C116.549 13.7664 116.606 13.4594 116.72 13.0167C116.749 12.9025 116.763 12.7454 116.763 12.5454C116.763 12.2741 116.677 12.0456 116.506 11.86C116.334 11.6743 116.113 11.5815 115.842 11.5815C114.956 11.5815 114.257 12.217 113.742 13.4879C113.243 14.7447 112.993 16.4798 112.993 18.6934V27.8618C112.993 28.7757 113.15 29.3898 113.464 29.7039C113.792 30.0181 114.442 30.1895 115.413 30.218V31.0963C113.942 30.925 112.629 30.8393 111.472 30.8393C110.329 30.8393 109.023 30.925 107.552 31.0963Z" fill=""/>
</svg>
