<svg viewBox="0 0 152 37" fill="none" xmlns="http://www.w3.org/2000/svg">
<g clip-path="url(#clip0)">
<path d="M31.8173 14.6843C31.6608 14.4934 31.4273 14.382 31.1823 14.382H28.0678C27.2992 12.3548 26.298 10.3687 25.1598 9.61893C21.2227 7.02888 10.7798 7.02888 6.84265 9.61893C5.70371 10.3695 4.70653 12.3581 3.93385 14.382H0.819397C0.571945 14.382 0.339241 14.4934 0.184379 14.6843C0.0286968 14.8744 -0.0335759 15.126 0.0172255 15.3677L0.478535 17.603C0.557196 17.984 0.893141 18.256 1.28071 18.256H2.20333C1.31266 19.2835 0.88085 20.5773 0.875115 21.8719C0.869379 23.4713 1.47654 24.9167 2.5868 25.9393C2.59909 25.95 2.61138 25.9573 2.62285 25.968V29.0956C2.62285 29.7732 3.17347 30.3246 3.85192 30.3246H6.72466C7.4031 30.3246 7.95372 29.7732 7.95372 29.0956V27.8386H24.0471V29.0956C24.0471 29.7732 24.5978 30.3246 25.2762 30.3246H28.1489C28.8257 30.3246 29.378 29.7732 29.378 29.0956V26.0294C30.5563 24.9503 31.1192 23.4656 31.1266 21.9834C31.1315 20.6445 30.68 19.3032 29.7369 18.2544H30.721C31.1102 18.2544 31.4461 17.9823 31.5231 17.6005L31.9853 15.3661C32.0328 15.126 31.973 14.8761 31.8173 14.6843ZM8.19216 11.6715C11.3304 9.60582 20.6705 9.60582 23.8071 11.6715C24.4167 12.0713 25.2008 13.688 25.9194 15.6676H6.08144C6.7984 13.6888 7.58255 12.073 8.19216 11.6715ZM4.51643 22.18C4.51643 20.8444 5.59965 19.7628 6.93442 19.7628C8.27082 19.7628 9.3524 20.8444 9.3524 22.18C9.3524 23.5156 8.27082 24.598 6.93442 24.598C5.59965 24.598 4.51643 23.5156 4.51643 22.18ZM25.0984 24.598C23.7636 24.598 22.6804 23.5156 22.6804 22.18C22.6804 20.8444 23.7636 19.7628 25.0984 19.7628C26.4348 19.7628 27.5164 20.8444 27.5164 22.18C27.5164 23.5156 26.4332 24.598 25.0984 24.598Z" fill="#53B374"/>
</g>
<path d="M53.53 4.04H57.958C59.362 4.04 60.454 4.322 61.234 4.886C62.014 5.438 62.404 6.296 62.404 7.46C62.404 8.156 62.248 8.75 61.936 9.242C61.624 9.734 61.138 10.106 60.478 10.358C61.378 10.61 62.014 11.018 62.386 11.582C62.758 12.134 62.944 12.77 62.944 13.49C62.944 14.582 62.554 15.44 61.774 16.064C61.006 16.688 59.824 17 58.228 17H53.53V4.04ZM58.228 15.218C59.068 15.218 59.692 15.068 60.1 14.768C60.508 14.456 60.712 13.952 60.712 13.256C60.712 12.572 60.508 12.08 60.1 11.78C59.692 11.468 59.068 11.312 58.228 11.312H55.762V15.218H58.228ZM57.814 9.602C58.606 9.602 59.194 9.458 59.578 9.17C59.974 8.87 60.172 8.396 60.172 7.748C60.172 7.1 59.974 6.626 59.578 6.326C59.194 6.026 58.606 5.876 57.814 5.876H55.762V9.602H57.814ZM70.3788 9.656C70.3068 9.644 70.2168 9.638 70.1088 9.638C70.0008 9.626 69.8988 9.62 69.8028 9.62C69.4788 9.62 69.1728 9.668 68.8848 9.764C68.6088 9.86 68.3568 9.974 68.1288 10.106C67.9128 10.238 67.7208 10.376 67.5528 10.52C67.3848 10.664 67.2528 10.784 67.1568 10.88V17H64.9248V7.82H67.1568V9.242C67.4208 8.81 67.7748 8.432 68.2188 8.108C68.6748 7.772 69.2088 7.604 69.8208 7.604C70.0488 7.604 70.2348 7.622 70.3788 7.658V9.656ZM75.0149 9.386C74.5229 9.386 74.0429 9.464 73.5749 9.62C73.1069 9.764 72.6329 9.956 72.1529 10.196L71.6849 8.504C72.2009 8.252 72.7769 8.042 73.4129 7.874C74.0489 7.694 74.7389 7.604 75.4829 7.604C76.0109 7.604 76.4849 7.658 76.9049 7.766C77.3249 7.874 77.6789 8.06 77.9669 8.324C78.2669 8.576 78.4949 8.912 78.6509 9.332C78.8069 9.74 78.8849 10.25 78.8849 10.862V14.912C78.8849 15.272 78.8909 15.578 78.9029 15.83C78.9149 16.07 78.9269 16.268 78.9389 16.424C78.9629 16.58 78.9809 16.706 78.9929 16.802C79.0169 16.886 79.0409 16.952 79.0649 17H76.9589C76.9109 16.928 76.8629 16.82 76.8149 16.676C76.7789 16.52 76.7489 16.28 76.7249 15.956C76.3289 16.364 75.8969 16.676 75.4289 16.892C74.9609 17.108 74.4569 17.216 73.9169 17.216C73.1249 17.216 72.4709 16.976 71.9549 16.496C71.4389 16.016 71.1809 15.308 71.1809 14.372C71.1809 13.4 71.5049 12.644 72.1529 12.104C72.8129 11.564 73.8749 11.294 75.3389 11.294C75.6029 11.294 75.8369 11.306 76.0409 11.33C76.2449 11.342 76.4669 11.366 76.7069 11.402V11.042C76.7069 10.43 76.5629 10.004 76.2749 9.764C75.9989 9.512 75.5789 9.386 75.0149 9.386ZM74.6729 15.524C75.0449 15.524 75.4049 15.44 75.7529 15.272C76.1129 15.092 76.4309 14.87 76.7069 14.606V12.77C76.4669 12.734 76.2629 12.71 76.0949 12.698C75.9389 12.674 75.7529 12.662 75.5369 12.662C74.7449 12.662 74.1809 12.788 73.8449 13.04C73.5209 13.28 73.3589 13.652 73.3589 14.156C73.3589 14.624 73.4789 14.972 73.7189 15.2C73.9589 15.416 74.2769 15.524 74.6729 15.524ZM81.0131 7.82H83.2451V9.044C83.6651 8.624 84.1511 8.282 84.7031 8.018C85.2551 7.742 85.8731 7.604 86.5571 7.604C86.9051 7.604 87.2291 7.652 87.5291 7.748C87.8291 7.832 88.0871 7.976 88.3031 8.18C88.5191 8.372 88.6871 8.63 88.8071 8.954C88.9391 9.278 89.0051 9.68 89.0051 10.16V17H86.7731V10.808C86.7731 10.328 86.6711 9.998 86.4671 9.818C86.2631 9.638 85.9871 9.548 85.6391 9.548C85.1951 9.548 84.7691 9.656 84.3611 9.872C83.9651 10.076 83.5931 10.334 83.2451 10.646V17H81.0131V7.82ZM97.1075 17C97.0595 16.928 97.0115 16.814 96.9635 16.658C96.9275 16.49 96.8975 16.202 96.8735 15.794C96.4775 16.25 96.0455 16.604 95.5775 16.856C95.1215 17.096 94.6115 17.216 94.0475 17.216C93.5315 17.216 93.0635 17.114 92.6435 16.91C92.2235 16.706 91.8575 16.406 91.5455 16.01C91.2455 15.614 91.0115 15.128 90.8435 14.552C90.6755 13.976 90.5915 13.316 90.5915 12.572C90.5915 11.768 90.6875 11.06 90.8795 10.448C91.0715 9.824 91.3295 9.302 91.6535 8.882C91.9895 8.462 92.3795 8.144 92.8235 7.928C93.2675 7.712 93.7475 7.604 94.2635 7.604C94.7795 7.604 95.2475 7.712 95.6675 7.928C96.0875 8.144 96.4835 8.468 96.8555 8.9V4.04H99.0875V14.912C99.0875 15.632 99.1055 16.142 99.1415 16.442C99.1775 16.73 99.2195 16.916 99.2675 17H97.1075ZM94.7855 15.434C95.4815 15.434 96.1715 15.08 96.8555 14.372V10.502C96.2315 9.842 95.5655 9.512 94.8575 9.512C94.2455 9.512 93.7535 9.752 93.3815 10.232C93.0095 10.7 92.8235 11.45 92.8235 12.482C92.8235 13.514 93.0035 14.264 93.3635 14.732C93.7355 15.2 94.2095 15.434 94.7855 15.434ZM105.416 4.04H107.846L113.246 12.662V4.04H115.352V17H113.462L107.522 7.514V17H105.416V4.04ZM121.212 9.386C120.72 9.386 120.24 9.464 119.772 9.62C119.304 9.764 118.83 9.956 118.35 10.196L117.882 8.504C118.398 8.252 118.974 8.042 119.61 7.874C120.246 7.694 120.936 7.604 121.68 7.604C122.208 7.604 122.682 7.658 123.102 7.766C123.522 7.874 123.876 8.06 124.164 8.324C124.464 8.576 124.692 8.912 124.848 9.332C125.004 9.74 125.082 10.25 125.082 10.862V14.912C125.082 15.272 125.088 15.578 125.1 15.83C125.112 16.07 125.124 16.268 125.136 16.424C125.16 16.58 125.178 16.706 125.19 16.802C125.214 16.886 125.238 16.952 125.262 17H123.156C123.108 16.928 123.06 16.82 123.012 16.676C122.976 16.52 122.946 16.28 122.922 15.956C122.526 16.364 122.094 16.676 121.626 16.892C121.158 17.108 120.654 17.216 120.114 17.216C119.322 17.216 118.668 16.976 118.152 16.496C117.636 16.016 117.378 15.308 117.378 14.372C117.378 13.4 117.702 12.644 118.35 12.104C119.01 11.564 120.072 11.294 121.536 11.294C121.8 11.294 122.034 11.306 122.238 11.33C122.442 11.342 122.664 11.366 122.904 11.402V11.042C122.904 10.43 122.76 10.004 122.472 9.764C122.196 9.512 121.776 9.386 121.212 9.386ZM120.87 15.524C121.242 15.524 121.602 15.44 121.95 15.272C122.31 15.092 122.628 14.87 122.904 14.606V12.77C122.664 12.734 122.46 12.71 122.292 12.698C122.136 12.674 121.95 12.662 121.734 12.662C120.942 12.662 120.378 12.788 120.042 13.04C119.718 13.28 119.556 13.652 119.556 14.156C119.556 14.624 119.676 14.972 119.916 15.2C120.156 15.416 120.474 15.524 120.87 15.524ZM127.21 7.82H129.442V9.044C129.814 8.66 130.264 8.324 130.792 8.036C131.332 7.748 131.944 7.604 132.628 7.604C133.108 7.604 133.558 7.712 133.978 7.928C134.41 8.132 134.71 8.51 134.878 9.062C135.262 8.678 135.73 8.342 136.282 8.054C136.846 7.754 137.494 7.604 138.226 7.604C138.574 7.604 138.892 7.652 139.18 7.748C139.468 7.832 139.714 7.976 139.918 8.18C140.134 8.372 140.302 8.63 140.422 8.954C140.542 9.278 140.602 9.68 140.602 10.16V17H138.37V10.808C138.37 10.316 138.274 9.986 138.082 9.818C137.89 9.638 137.626 9.548 137.29 9.548C136.858 9.548 136.45 9.65 136.066 9.854C135.694 10.058 135.346 10.31 135.022 10.61V17H132.79V10.808C132.79 10.316 132.688 9.986 132.484 9.818C132.292 9.638 132.034 9.548 131.71 9.548C131.29 9.548 130.888 9.656 130.504 9.872C130.12 10.076 129.766 10.334 129.442 10.646V17H127.21V7.82ZM146.541 9.224C145.965 9.224 145.485 9.422 145.101 9.818C144.729 10.214 144.507 10.808 144.435 11.6H148.377C148.365 10.772 148.191 10.172 147.855 9.8C147.519 9.416 147.081 9.224 146.541 9.224ZM144.471 13.04C144.543 13.952 144.801 14.6 145.245 14.984C145.689 15.356 146.265 15.542 146.973 15.542C147.429 15.542 147.879 15.476 148.323 15.344C148.767 15.2 149.241 15.008 149.745 14.768L150.213 16.37C149.721 16.634 149.163 16.844 148.539 17C147.915 17.144 147.297 17.216 146.685 17.216C145.317 17.216 144.225 16.826 143.409 16.046C142.593 15.254 142.185 14.084 142.185 12.536C142.185 11.732 142.299 11.024 142.527 10.412C142.755 9.788 143.067 9.272 143.463 8.864C143.859 8.444 144.327 8.132 144.867 7.928C145.407 7.712 145.989 7.604 146.613 7.604C147.777 7.604 148.707 7.976 149.403 8.72C150.111 9.452 150.465 10.568 150.465 12.068C150.465 12.392 150.447 12.716 150.411 13.04H144.471Z" fill="#242629"/>
<path d="M59.932 34H58.348L57.712 31.984H54.46L53.824 34H52.3L55.252 25.36H57.04L59.932 34ZM54.844 30.796H57.34L56.104 26.848L54.844 30.796ZM60.8546 27.88H63.7706C64.4506 27.88 64.9786 28.016 65.3546 28.288C65.7386 28.552 65.9306 28.956 65.9306 29.5C65.9306 29.836 65.8546 30.12 65.7026 30.352C65.5506 30.584 65.3066 30.756 64.9706 30.868C65.4026 30.98 65.7106 31.168 65.8946 31.432C66.0866 31.688 66.1826 31.996 66.1826 32.356C66.1826 32.868 65.9946 33.272 65.6186 33.568C65.2426 33.856 64.6666 34 63.8906 34H60.8546V27.88ZM63.6266 33.004C64.0346 33.004 64.3186 32.936 64.4786 32.8C64.6466 32.656 64.7306 32.456 64.7306 32.2C64.7306 31.944 64.6466 31.748 64.4786 31.612C64.3186 31.476 64.0346 31.408 63.6266 31.408H62.3066V33.004H63.6266ZM63.4106 30.448C63.7946 30.448 64.0666 30.388 64.2266 30.268C64.3946 30.148 64.4786 29.956 64.4786 29.692C64.4786 29.428 64.3946 29.236 64.2266 29.116C64.0666 28.988 63.7946 28.924 63.4106 28.924H62.3066V30.448H63.4106ZM66.6757 27.88H72.2197V29.032H70.1917V34H68.7037V29.032H66.6757V27.88ZM74.2154 30.964C74.2154 31.34 74.2514 31.66 74.3234 31.924C74.3954 32.188 74.4954 32.404 74.6234 32.572C74.7514 32.74 74.8994 32.864 75.0674 32.944C75.2354 33.016 75.4154 33.052 75.6074 33.052C75.7994 33.052 75.9794 33.016 76.1474 32.944C76.3154 32.864 76.4634 32.74 76.5914 32.572C76.7194 32.404 76.8194 32.188 76.8914 31.924C76.9634 31.66 76.9994 31.34 76.9994 30.964C76.9994 30.588 76.9634 30.268 76.8914 30.004C76.8194 29.74 76.7194 29.524 76.5914 29.356C76.4634 29.188 76.3154 29.068 76.1474 28.996C75.9794 28.916 75.7994 28.876 75.6074 28.876C75.4154 28.876 75.2354 28.916 75.0674 28.996C74.8994 29.068 74.7514 29.188 74.6234 29.356C74.4954 29.524 74.3954 29.74 74.3234 30.004C74.2514 30.268 74.2154 30.588 74.2154 30.964ZM78.4874 30.916C78.4874 31.468 78.4074 31.948 78.2474 32.356C78.0954 32.756 77.8874 33.092 77.6234 33.364C77.3594 33.628 77.0514 33.824 76.6994 33.952C76.3474 34.08 75.9754 34.144 75.5834 34.144C75.1994 34.144 74.8314 34.08 74.4794 33.952C74.1354 33.824 73.8314 33.632 73.5674 33.376C73.3114 33.112 73.1074 32.78 72.9554 32.38C72.8034 31.98 72.7274 31.508 72.7274 30.964C72.7274 30.412 72.8034 29.936 72.9554 29.536C73.1154 29.128 73.3274 28.792 73.5914 28.528C73.8554 28.256 74.1634 28.056 74.5154 27.928C74.8674 27.8 75.2394 27.736 75.6314 27.736C76.0154 27.736 76.3794 27.8 76.7234 27.928C77.0754 28.056 77.3794 28.252 77.6354 28.516C77.8994 28.772 78.1074 29.1 78.2594 29.5C78.4114 29.9 78.4874 30.372 78.4874 30.916ZM85.9635 29.404C85.7635 29.268 85.5635 29.156 85.3635 29.068C85.1635 28.972 84.9355 28.924 84.6795 28.924C84.2395 28.924 83.8715 29.088 83.5755 29.416C83.2875 29.744 83.1435 30.26 83.1435 30.964C83.1435 31.668 83.2875 32.184 83.5755 32.512C83.8715 32.832 84.2515 32.992 84.7155 32.992C84.9635 32.992 85.1915 32.952 85.3995 32.872C85.6155 32.792 85.8155 32.68 85.9995 32.536L86.3115 33.64C86.0795 33.792 85.8075 33.912 85.4955 34C85.1835 34.096 84.8435 34.144 84.4755 34.144C84.0595 34.144 83.6795 34.08 83.3355 33.952C82.9915 33.816 82.6955 33.62 82.4475 33.364C82.1995 33.1 82.0035 32.772 81.8595 32.38C81.7235 31.988 81.6555 31.532 81.6555 31.012C81.6555 30.476 81.7275 30.004 81.8715 29.596C82.0155 29.188 82.2195 28.848 82.4835 28.576C82.7475 28.296 83.0595 28.088 83.4195 27.952C83.7875 27.808 84.1915 27.736 84.6315 27.736C84.9915 27.736 85.3035 27.78 85.5675 27.868C85.8315 27.956 86.0675 28.068 86.2755 28.204L85.9635 29.404ZM93.4209 29.02H91.2129V34H89.7249V27.88H94.9089V34H93.4209V29.02ZM97.8566 27.88V28.684C98.1126 28.38 98.3926 28.148 98.6966 27.988C99.0086 27.82 99.3526 27.736 99.7286 27.736C100.073 27.736 100.385 27.808 100.665 27.952C100.945 28.088 101.185 28.288 101.385 28.552C101.593 28.816 101.753 29.144 101.865 29.536C101.977 29.92 102.033 30.36 102.033 30.856C102.033 31.392 101.969 31.868 101.841 32.284C101.713 32.692 101.537 33.036 101.313 33.316C101.097 33.588 100.841 33.796 100.545 33.94C100.249 34.076 99.9286 34.144 99.5846 34.144C98.9206 34.144 98.3446 33.856 97.8566 33.28V36.52H96.3686V27.88H97.8566ZM99.2366 29.008C98.7726 29.008 98.3126 29.244 97.8566 29.716V32.296C98.2726 32.736 98.7166 32.956 99.1886 32.956C99.5966 32.956 99.9246 32.8 100.173 32.488C100.421 32.168 100.545 31.664 100.545 30.976C100.545 30.288 100.421 29.788 100.173 29.476C99.9326 29.164 99.6206 29.008 99.2366 29.008ZM104.293 30.964C104.293 31.34 104.329 31.66 104.401 31.924C104.473 32.188 104.573 32.404 104.701 32.572C104.829 32.74 104.977 32.864 105.145 32.944C105.313 33.016 105.493 33.052 105.685 33.052C105.877 33.052 106.057 33.016 106.225 32.944C106.393 32.864 106.541 32.74 106.669 32.572C106.797 32.404 106.897 32.188 106.969 31.924C107.041 31.66 107.077 31.34 107.077 30.964C107.077 30.588 107.041 30.268 106.969 30.004C106.897 29.74 106.797 29.524 106.669 29.356C106.541 29.188 106.393 29.068 106.225 28.996C106.057 28.916 105.877 28.876 105.685 28.876C105.493 28.876 105.313 28.916 105.145 28.996C104.977 29.068 104.829 29.188 104.701 29.356C104.573 29.524 104.473 29.74 104.401 30.004C104.329 30.268 104.293 30.588 104.293 30.964ZM108.565 30.916C108.565 31.468 108.485 31.948 108.325 32.356C108.173 32.756 107.965 33.092 107.701 33.364C107.437 33.628 107.129 33.824 106.777 33.952C106.425 34.08 106.053 34.144 105.661 34.144C105.277 34.144 104.909 34.08 104.557 33.952C104.213 33.824 103.909 33.632 103.645 33.376C103.389 33.112 103.185 32.78 103.033 32.38C102.881 31.98 102.805 31.508 102.805 30.964C102.805 30.412 102.881 29.936 103.033 29.536C103.193 29.128 103.405 28.792 103.669 28.528C103.933 28.256 104.241 28.056 104.593 27.928C104.945 27.8 105.317 27.736 105.709 27.736C106.093 27.736 106.457 27.8 106.801 27.928C107.153 28.056 107.457 28.252 107.713 28.516C107.977 28.772 108.185 29.1 108.337 29.5C108.489 29.9 108.565 30.372 108.565 30.916ZM112.224 29.2C111.944 29.2 111.684 29.264 111.444 29.392C111.212 29.52 110.988 29.688 110.772 29.896V29.956C110.772 30.524 110.808 31.004 110.88 31.396C110.952 31.788 111.052 32.104 111.18 32.344C111.316 32.584 111.472 32.76 111.648 32.872C111.832 32.976 112.036 33.028 112.26 33.028C112.436 33.028 112.604 32.996 112.764 32.932C112.924 32.86 113.064 32.748 113.184 32.596C113.304 32.444 113.396 32.248 113.46 32.008C113.532 31.768 113.568 31.472 113.568 31.12C113.568 30.448 113.444 29.96 113.196 29.656C112.956 29.352 112.632 29.2 112.224 29.2ZM112.836 26.608C112.532 26.608 112.256 26.648 112.008 26.728C111.768 26.808 111.56 26.936 111.384 27.112C111.208 27.288 111.064 27.524 110.952 27.82C110.84 28.108 110.764 28.464 110.724 28.888C110.98 28.608 111.268 28.38 111.588 28.204C111.916 28.028 112.284 27.94 112.692 27.94C113.036 27.94 113.352 28.008 113.64 28.144C113.928 28.28 114.176 28.476 114.384 28.732C114.6 28.988 114.764 29.304 114.876 29.68C114.996 30.048 115.056 30.472 115.056 30.952C115.056 31.496 114.98 31.968 114.828 32.368C114.684 32.768 114.484 33.1 114.228 33.364C113.98 33.628 113.684 33.824 113.34 33.952C112.996 34.08 112.632 34.144 112.248 34.144C111.808 34.144 111.404 34.06 111.036 33.892C110.676 33.724 110.364 33.464 110.1 33.112C109.844 32.752 109.644 32.3 109.5 31.756C109.356 31.212 109.284 30.568 109.284 29.824C109.284 28.992 109.372 28.288 109.548 27.712C109.732 27.136 109.98 26.668 110.292 26.308C110.612 25.948 110.988 25.688 111.42 25.528C111.86 25.368 112.332 25.288 112.836 25.288C113.188 25.288 113.5 25.284 113.772 25.276C114.044 25.26 114.264 25.224 114.432 25.168V26.488C114.256 26.536 114.02 26.568 113.724 26.584C113.436 26.6 113.14 26.608 112.836 26.608ZM118.692 28.816C118.308 28.816 117.988 28.948 117.732 29.212C117.484 29.476 117.336 29.872 117.288 30.4H119.916C119.908 29.848 119.792 29.448 119.568 29.2C119.344 28.944 119.052 28.816 118.692 28.816ZM117.312 31.36C117.36 31.968 117.532 32.4 117.828 32.656C118.124 32.904 118.508 33.028 118.98 33.028C119.284 33.028 119.584 32.984 119.88 32.896C120.176 32.8 120.492 32.672 120.828 32.512L121.14 33.58C120.812 33.756 120.44 33.896 120.024 34C119.608 34.096 119.196 34.144 118.788 34.144C117.876 34.144 117.148 33.884 116.604 33.364C116.06 32.836 115.788 32.056 115.788 31.024C115.788 30.488 115.864 30.016 116.016 29.608C116.168 29.192 116.376 28.848 116.64 28.576C116.904 28.296 117.216 28.088 117.576 27.952C117.936 27.808 118.324 27.736 118.74 27.736C119.516 27.736 120.136 27.984 120.6 28.48C121.072 28.968 121.308 29.712 121.308 30.712C121.308 30.928 121.296 31.144 121.272 31.36H117.312ZM126.459 27.88V29.032H123.951V34H122.463V27.88H126.459ZM128.419 30.964C128.419 31.34 128.455 31.66 128.527 31.924C128.599 32.188 128.699 32.404 128.827 32.572C128.955 32.74 129.103 32.864 129.271 32.944C129.439 33.016 129.619 33.052 129.811 33.052C130.003 33.052 130.183 33.016 130.351 32.944C130.519 32.864 130.667 32.74 130.795 32.572C130.923 32.404 131.023 32.188 131.095 31.924C131.167 31.66 131.203 31.34 131.203 30.964C131.203 30.588 131.167 30.268 131.095 30.004C131.023 29.74 130.923 29.524 130.795 29.356C130.667 29.188 130.519 29.068 130.351 28.996C130.183 28.916 130.003 28.876 129.811 28.876C129.619 28.876 129.439 28.916 129.271 28.996C129.103 29.068 128.955 29.188 128.827 29.356C128.699 29.524 128.599 29.74 128.527 30.004C128.455 30.268 128.419 30.588 128.419 30.964ZM132.691 30.916C132.691 31.468 132.611 31.948 132.451 32.356C132.299 32.756 132.091 33.092 131.827 33.364C131.563 33.628 131.255 33.824 130.903 33.952C130.551 34.08 130.179 34.144 129.787 34.144C129.403 34.144 129.035 34.08 128.683 33.952C128.339 33.824 128.035 33.632 127.771 33.376C127.515 33.112 127.311 32.78 127.159 32.38C127.007 31.98 126.931 31.508 126.931 30.964C126.931 30.412 127.007 29.936 127.159 29.536C127.319 29.128 127.531 28.792 127.795 28.528C128.059 28.256 128.367 28.056 128.719 27.928C129.071 27.8 129.443 27.736 129.835 27.736C130.219 27.736 130.583 27.8 130.927 27.928C131.279 28.056 131.583 28.252 131.839 28.516C132.103 28.772 132.311 29.1 132.463 29.5C132.615 29.9 132.691 30.372 132.691 30.916ZM136.854 34L135.678 30.82C135.638 30.708 135.594 30.588 135.546 30.46C135.506 30.332 135.466 30.208 135.426 30.088C135.394 29.96 135.362 29.844 135.33 29.74C135.298 29.628 135.278 29.536 135.27 29.464H135.246C135.246 29.536 135.242 29.628 135.234 29.74C135.234 29.852 135.23 29.972 135.222 30.1C135.214 30.228 135.206 30.36 135.198 30.496C135.19 30.624 135.182 30.744 135.174 30.856L134.922 34H133.614L134.214 27.88H135.966L137.118 31.276C137.158 31.404 137.194 31.516 137.226 31.612C137.258 31.708 137.286 31.804 137.31 31.9L137.382 32.212C137.414 32.324 137.446 32.456 137.478 32.608H137.502C137.558 32.376 137.614 32.16 137.67 31.96C137.734 31.752 137.81 31.52 137.898 31.264L139.098 27.88H140.814L141.39 34H140.022L139.782 30.904C139.774 30.792 139.762 30.668 139.746 30.532C139.738 30.396 139.73 30.26 139.722 30.124C139.714 29.988 139.706 29.864 139.698 29.752C139.698 29.632 139.698 29.536 139.698 29.464H139.674C139.65 29.608 139.598 29.812 139.518 30.076C139.446 30.332 139.362 30.588 139.266 30.844L138.09 34H136.854Z" fill="#53B374"/>
<defs>
<clipPath id="clip0">
<rect fill="white" transform="translate(0 3)"/>
</clipPath>
</defs>
</svg>
