<svg width="24" height="24" viewBox="0 0 24 24" fill="none" xmlns="http://www.w3.org/2000/svg">
<path d="M12.0001 11.5404C13.5509 11.5404 14.8125 10.2787 14.8125 8.72788C14.8125 7.17706 13.5509 5.91537 12.0001 5.91537C10.4492 5.91537 9.1875 7.17706 9.1875 8.72788C9.1875 10.2787 10.4492 11.5404 12.0001 11.5404ZM12.0001 7.32163C12.7755 7.32163 13.4062 7.95247 13.4062 8.72788C13.4062 9.50329 12.7755 10.1341 12.0001 10.1341C11.2246 10.1341 10.5938 9.50329 10.5938 8.72788C10.5938 7.95247 11.2246 7.32163 12.0001 7.32163Z" fill="#53B374"/>
<path d="M20.9466 16.1719H16.2408C18.4381 14.0745 20.4375 12.0185 20.4375 8.4375C20.4375 3.61256 16.8145 0 12.0001 0C7.1759 0 3.56249 3.6233 3.56249 8.4375C3.56249 12.0185 5.5619 14.0745 7.75931 16.1719H3.05338L0.482056 24H23.5179L20.9466 16.1719ZM4.96874 8.4375C4.96874 4.36331 7.92585 1.40625 12.0001 1.40625C16.0742 1.40625 19.0312 4.36331 19.0312 8.4375C19.0312 12.9955 15.1839 14.6099 12.0001 18.5355C11.0433 17.3558 10.02 16.3821 9.02493 15.4353C6.75871 13.279 4.96874 11.5758 4.96874 8.4375ZM2.99385 20.8594H8.06249V19.4531H3.45576L4.07165 17.5781H9.18749V17.5465C11.0553 19.3987 11.5606 20.327 12.0001 20.8806C12.4505 20.3133 12.9393 19.4043 14.8125 17.5466V17.5781H19.9284L20.5443 19.4531H15.9375V20.8594H21.0061L21.5758 22.5938H2.42418L2.99385 20.8594Z" fill="#53B374"/>
</svg>