<svg width="44" height="44" viewBox="0 0 44 44" fill="" xmlns="http://www.w3.org/2000/svg">
<path d="M5.5309 7.37756C4.02889 7.37756 2.80078 8.59684 2.80078 10.1077C2.80078 11.6185 4.02889 12.829 5.5309 12.829C7.03291 12.829 8.26102 11.6097 8.26102 10.0988C8.25219 8.59684 7.03291 7.37756 5.5309 7.37756ZM5.5309 11.0619C5.00078 11.0619 4.56785 10.629 4.56785 10.0988C4.56785 9.56873 5.00078 9.1358 5.5309 9.1358C6.06102 9.1358 6.49395 9.56873 6.49395 10.0988C6.49395 10.629 6.06102 11.0619 5.5309 11.0619Z" fill=""/>
<path d="M43.9558 33.4595L43.9293 30.6057C43.9382 30.5438 43.9381 30.4908 43.9381 30.429C43.9381 29.7221 43.4699 29.139 42.5863 28.6796V13.7743C42.5863 11.8836 41.049 10.3551 39.1582 10.3551H39.1494H37.2851V8.16389C37.2851 6.26429 35.7655 4.70044 33.8659 4.70044H3.45462C1.54618 4.70927 0.00883534 6.25546 0 8.16389V24.094C0 25.9936 1.56386 27.4956 3.45462 27.4956H5.3012V29.6956C5.3012 31.5952 6.82972 33.1414 8.73815 33.1502H15.9566C16.3189 34.4579 17.061 35.6241 18.0859 36.4988C20.5775 38.6547 24.2353 38.7518 26.8418 36.7285C27.8932 36.9494 28.9622 37.0643 30.0313 37.082C30.2434 37.6386 30.8618 38.2659 32.3462 38.7165C33.5831 39.0964 35.2177 39.2996 36.9494 39.2996C39.5647 39.2996 44 38.7165 44 36.5165V36.5077L43.9558 33.4595ZM37.2851 12.1221H39.1494C40.0683 12.1133 40.8104 12.8466 40.8193 13.7655V13.7743V28.0788C39.7767 27.849 38.7076 27.7077 37.6386 27.6723V25.2691C37.6386 25.2249 37.6474 25.1719 37.6474 25.1189C37.6474 25.0747 37.6386 25.0394 37.6386 24.9952V22.6715C37.7092 22.4948 37.7446 22.3093 37.7357 22.1237C37.7357 21.841 37.6386 21.4611 37.2851 21.0723V12.1221ZM36.755 29.4394H36.8257C38.5928 29.4394 40.298 29.6779 41.3847 30.0932C41.6321 30.1816 41.8618 30.2964 42.0739 30.4466C41.5791 30.8177 39.7944 31.4539 36.8257 31.4539C33.8747 31.4539 32.1165 30.8089 31.657 30.4466C31.8426 30.3053 32.2578 30.0755 33.0795 29.8635C34.0956 29.5808 35.4032 29.4394 36.755 29.4394ZM35.8803 25.0394H35.8715C35.5181 25.4635 33.4418 26.1792 30.4643 26.1792C29.139 26.1792 27.849 26.0378 26.8241 25.7904C26.3558 25.4282 25.8345 25.1277 25.2867 24.898L25.2691 24.1028C26.6827 24.6771 28.6884 24.9069 30.4731 24.9069C31.9574 24.9069 34.29 24.7125 35.8803 24.0852V25.0394ZM35.6683 22.2298C35.4032 22.3711 34.9703 22.5478 34.29 22.7157C33.1944 22.9808 31.8337 23.131 30.4554 23.131C27.5044 23.131 25.7462 22.486 25.2867 22.1237C25.755 21.7615 27.5044 21.1165 30.4554 21.1165C32.2137 21.1165 34.4667 21.4081 35.5622 21.9647C35.5799 22.0531 35.6153 22.1502 35.6683 22.2298ZM3.45462 25.7197V25.7286C2.53574 25.7286 1.76707 25.0129 1.76707 24.094V8.17273C1.7759 7.23618 2.52691 6.48518 3.45462 6.47634H33.8659C34.7936 6.47634 35.5181 7.25385 35.5181 8.17273V20.0563C34.1928 19.6145 32.3992 19.3494 30.4466 19.3494C28.7855 19.3494 26.4088 19.588 24.8892 20.3213C27.1952 16.8844 26.2763 12.237 22.8394 9.93096C19.4024 7.62494 14.755 8.54381 12.449 11.9808C10.143 15.4177 11.0618 20.0651 14.4988 22.3711C17.2554 24.2177 20.8956 24.0322 23.449 21.9117C23.4402 21.9824 23.4313 22.053 23.4313 22.1237C23.4313 22.1944 23.4402 22.2563 23.449 22.3181L23.502 24.4121C23.2104 24.3679 22.91 24.3414 22.6096 24.3326C21.1076 24.3326 19.641 24.8185 18.4305 25.7197H3.45462ZM24.4032 16.1245C24.4032 19.2964 21.8321 21.8675 18.6602 21.8675C15.4884 21.8675 12.9173 19.2964 12.9173 16.1245C12.9173 12.9526 15.4884 10.3816 18.6602 10.3816C21.8321 10.3904 24.4032 12.9615 24.4032 16.1245ZM15.7004 31.2595C15.7004 31.2948 15.7004 31.2948 15.7004 31.3832H8.73815C7.81044 31.3743 7.06827 30.6233 7.06827 29.6956V27.4956H16.796C16.0892 28.6177 15.7004 29.9253 15.7004 31.2595ZM27.5309 32.7615C26.7092 35.4828 23.8377 37.0113 21.1165 36.1896C18.3952 35.3679 16.8667 32.4964 17.6884 29.7751C18.51 27.0539 21.3815 25.5253 24.1028 26.347C24.1116 26.347 24.1293 26.3559 24.1382 26.3559C24.8096 26.5591 25.4281 26.9037 25.9494 27.3631C26.8153 28.1053 27.4072 29.1125 27.6369 30.2257V30.2346C27.8225 31.0739 27.7783 31.9398 27.5309 32.7615ZM28.2996 35.1912C28.5647 34.8113 28.7855 34.4049 28.9622 33.9896C29.2626 34.0161 29.5719 34.0249 29.89 34.0338L29.9076 35.3149C29.351 35.2972 28.812 35.253 28.2996 35.1912ZM29.51 30.9679C29.6161 30.9767 29.7309 30.9767 29.8458 30.9767L29.8635 32.2579C29.7221 32.2579 29.5896 32.249 29.4482 32.2402C29.4924 31.9133 29.5189 31.5952 29.5189 31.2683C29.5189 31.1711 29.5189 31.0739 29.51 30.9679ZM30.3671 29.2273C29.9695 29.2273 29.5719 29.2097 29.2008 29.1832C29.0594 28.7237 28.8651 28.282 28.6265 27.8667C29.2185 27.9197 29.8369 27.9462 30.4643 27.9462C32.1253 27.9462 33.751 27.743 35.0321 27.3631C35.3414 27.2747 35.6153 27.1687 35.8803 27.0627V27.6723C34.6434 27.7342 33.4153 27.9109 32.4434 28.1848C31.498 28.4498 30.8 28.8032 30.3671 29.2273ZM31.6305 32.4081C33.053 32.9824 35.0763 33.2121 36.8257 33.2121C38.4867 33.2121 40.0859 33.0177 41.3317 32.6555C41.6145 32.5759 41.8972 32.4788 42.1711 32.3639L42.1799 33.3004C42.1711 33.3269 42.1711 33.3534 42.1711 33.3888C41.8795 33.7334 40.0506 34.4844 36.8257 34.4844C33.8659 34.4844 32.1076 33.8394 31.6482 33.4771L31.6305 32.4081ZM36.9406 37.5414C35.5711 37.5414 34.2546 37.4 33.2209 37.135C32.2137 36.8787 31.7984 36.5872 31.6924 36.4723L31.6747 35.4739C33.106 36.0394 35.1116 36.2603 36.8169 36.2603C38.4072 36.2603 40.6602 36.0482 42.1976 35.4032L42.2064 36.4547C41.9237 36.7992 40.1213 37.5414 36.9406 37.5414Z" fill=""/>
<path d="M22.6096 27.3099C20.4273 27.3099 18.6514 29.0858 18.6514 31.2682C18.6514 33.4505 20.4273 35.2264 22.6096 35.2264C24.7919 35.2264 26.5678 33.4505 26.5678 31.2682C26.5678 29.0858 24.7919 27.3099 22.6096 27.3099ZM22.6096 33.4593C21.3992 33.4593 20.4184 32.4786 20.4184 31.2682C20.4184 30.0577 21.3992 29.077 22.6096 29.077C23.82 29.077 24.8008 30.0577 24.8008 31.2682C24.8008 32.4786 23.82 33.4593 22.6096 33.4593Z" fill=""/>
</svg>
