<svg width="44" height="44" viewBox="0 0 44 44" fill="" xmlns="http://www.w3.org/2000/svg">
<path d="M42.9838 19.0854L40.6051 18.862C40.3259 17.9016 39.9462 16.9859 39.4437 16.1148L40.9513 14.2945C41.3198 13.8478 41.2863 13.2112 40.8843 12.798L37.9137 9.79399C37.5117 9.38079 36.8528 9.34729 36.4061 9.71581L34.5858 11.2234C33.7259 10.7321 32.799 10.3412 31.8497 10.062L31.6264 7.69449C31.5706 7.12495 31.0904 6.68942 30.5096 6.68942H26.802V3.33916C26.802 2.72495 26.2995 2.22241 25.6853 2.22241C25.0711 2.22241 24.5685 2.72495 24.5685 3.33916V8.92292H20.3472C18.5492 8.92292 16.8406 9.77165 15.7462 11.2011L11.1452 17.2651L3.40609 19.3757C1.39594 19.9229 0.0111675 21.7432 0 23.8316V26.7909C0.0111675 29.3371 2.08833 31.392 4.63452 31.392H5.23756C6.07513 34.5077 9.2802 36.3392 12.3959 35.5016C14.3949 34.9544 15.9695 33.3909 16.5056 31.392H24.5685V40.661C24.5685 41.2752 25.0711 41.7777 25.6853 41.7777C26.2995 41.7777 26.802 41.2752 26.802 40.661V37.9808H30.5096C31.0904 37.9808 31.5706 37.5453 31.6264 36.9646L31.8497 34.5859C32.8102 34.3067 33.7259 33.927 34.597 33.4356L36.4173 34.9432C36.864 35.3118 37.5117 35.2783 37.9137 34.8762L40.9178 31.8722C41.3198 31.4701 41.3533 30.8112 40.9848 30.3645L39.4772 28.5442C39.9685 27.6732 40.3594 26.7574 40.6386 25.8082L42.9838 25.5849C43.5533 25.529 44 25.0488 44 24.4681V20.1909C44 19.6214 43.5533 19.1412 42.9838 19.0854ZM10.866 33.4803C8.87817 33.4803 7.25888 31.861 7.25888 29.8732C7.25888 27.8854 8.87817 26.2661 10.866 26.2661C12.8538 26.2661 14.4731 27.8854 14.4731 29.8732C14.4731 31.861 12.865 33.4803 10.866 33.4803ZM24.5685 29.1473H16.6619C16.2711 25.9422 13.3563 23.6752 10.1624 24.0549C7.50457 24.3788 5.40508 26.4783 5.07005 29.1473H4.62335C3.30558 29.1585 2.2335 28.0975 2.22234 26.7798V23.8316C2.2335 22.7595 2.94822 21.8214 3.9868 21.531L12.0944 19.3199C12.3289 19.2529 12.5411 19.1189 12.6863 18.9178L17.533 12.5635C18.203 11.6813 19.2528 11.1676 20.3584 11.1676H24.5685V29.1473ZM26.802 17.5889C29.4152 16.7178 32.2406 18.1361 33.1117 20.7605C33.9827 23.3849 32.5645 26.1991 29.9401 27.0701C28.9239 27.4052 27.8183 27.4052 26.802 27.0701V17.5889ZM41.7665 23.4407L39.6447 23.6417C39.1645 23.6864 38.7624 24.0437 38.6619 24.5128C38.3827 25.7635 37.8802 26.9473 37.1767 28.0194C36.9086 28.4326 36.9421 28.9574 37.2548 29.3371L38.6173 30.9899L37.0538 32.5534L35.401 31.2021C35.0213 30.8894 34.4853 30.8559 34.0721 31.1351C33.0112 31.8387 31.8274 32.3412 30.5766 32.6092C30.0964 32.7097 29.7503 33.1118 29.7056 33.592L29.5046 35.7361H26.802V29.3818C30.6995 30.2529 34.5635 27.796 35.4234 23.8986C36.2944 20.0011 33.8376 16.1371 29.9401 15.2661C28.9015 15.0316 27.8294 15.0316 26.802 15.2661V8.93409H29.4934L29.7056 11.0671C29.7503 11.5473 30.1076 11.9493 30.5766 12.0498C31.8274 12.329 33.0112 12.8316 34.0833 13.5239C34.4964 13.792 35.0213 13.7585 35.401 13.4458L37.0426 12.0833L38.5838 13.6356L37.2102 15.2996C36.8975 15.6793 36.864 16.2153 37.1431 16.6285C37.8467 17.6894 38.3492 18.8732 38.6173 20.1239C38.7289 20.6041 39.1198 20.9503 39.6112 20.995L41.7665 21.2072V23.4407Z" fill=""/>
</svg>
