<svg width="64" height="64" viewBox="0 0 64 64" fill="" xmlns="http://www.w3.org/2000/svg">
<path d="M32 1C14.907 1 1 14.906 1 32C1 49.094 14.907 63 32 63C49.093 63 63 49.094 63 32C63 14.906 49.093 1 32 1ZM32 61C16.009 61 3 47.99 3 32C3 16.01 16.009 3 32 3C47.991 3 61 16.01 61 32C61 47.99 47.991 61 32 61Z" fill="#242629"/>
<path d="M48.8014 19.3988C48.2484 18.6638 47.6414 17.9578 46.9974 17.2988L45.5684 18.6988C46.1514 19.2938 46.7014 19.9328 47.2024 20.5988L48.8014 19.3988Z" fill="#242629"/>
<path d="M44.602 15.2C40.945 12.452 36.587 11 32 11V13C36.15 13 40.093 14.313 43.401 16.8L44.602 15.2Z" fill="#242629"/>
<path d="M32 7C18.215 7 7 18.215 7 32C7 45.785 18.215 57 32 57C45.785 57 57 45.785 57 32C57 18.215 45.785 7 32 7ZM54.446 37H46.535C45.911 37 45.296 37.061 44.696 37.178C44.891 36.138 45 35.076 45 34C45 30.065 43.661 26.366 41.348 23.6C47.913 24.423 52.781 25.857 54.293 26.338C54.753 28.15 55 30.047 55 32C55 33.717 54.805 35.389 54.446 37ZM32 9C41.88 9 50.323 15.262 53.573 24.026C50.046 23.001 41.9 21 32 21C22.1 21 13.954 23.001 10.427 24.026C13.677 15.262 22.12 9 32 9ZM9 32C9 30.047 9.247 28.15 9.707 26.338C11.218 25.857 16.083 24.422 22.653 23.599C20.339 26.365 19 30.064 19 34C19 35.076 19.109 36.138 19.303 37.178C18.704 37.061 18.089 37 17.464 37H9.554C9.195 35.389 9 33.717 9 32ZM10.093 39H17.465C19.478 39 21.37 39.784 22.794 41.207C24.216 42.631 25 44.522 25 46.535V53.907C17.939 51.646 12.354 46.061 10.093 39ZM27 54.446V46.535C27 43.988 26.008 41.594 24.207 39.793C23.415 39.001 22.502 38.375 21.517 37.911C21.18 36.65 21 35.338 21 34C21 29.68 22.803 25.698 25.821 23.267C27.781 23.101 29.851 23 32 23C34.149 23 36.22 23.102 38.182 23.267C41.198 25.7 43 29.682 43 34C43 35.338 42.82 36.65 42.482 37.911C41.497 38.375 40.585 39 39.792 39.793C37.992 41.594 37 43.988 37 46.535V54.446C35.389 54.805 33.717 55 32 55C30.283 55 28.611 54.805 27 54.446ZM39 53.907V46.535C39 44.522 39.784 42.631 41.207 41.207C42.63 39.784 44.523 39 46.536 39H53.908C51.646 46.061 46.061 51.646 39 53.907Z" fill=""/>
<path d="M39 32C39 28.141 35.86 25 32 25C28.14 25 25 28.141 25 32C25 35.859 28.14 39 32 39C35.86 39 39 35.859 39 32ZM27 32C27 29.243 29.243 27 32 27C34.757 27 37 29.243 37 32C37 34.757 34.757 37 32 37C29.243 37 27 34.757 27 32Z" fill=""/>
<path d="M51 27H49C47.897 27 47 27.897 47 29V33C47 34.103 47.897 35 49 35H51C52.103 35 53 34.103 53 33V29C53 27.897 52.103 27 51 27ZM49 33V29H51L51.001 33H49Z" fill=""/>
<path d="M15 27H13C11.897 27 11 27.897 11 29V33C11 34.103 11.897 35 13 35H15C16.103 35 17 34.103 17 33V29C17 27.897 16.103 27 15 27ZM13 33V29H15L15.001 33H13Z" fill=""/>
<path d="M29 51H35V53H29V51Z" fill="#242629"/>
<path d="M29 47H35V49H29V47Z" fill="#242629"/>
<path d="M29 43H35V45H29V43Z" fill="#242629"/>
</svg>
