<svg width="417" height="473" viewBox="0 0 417 473" fill="" xmlns="http://www.w3.org/2000/svg">
<path d="M323.46 27.7808C363.379 45.8331 409.908 71.5131 416.01 104.567C422.112 137.366 387.533 177.793 360.327 219.491C332.868 261.189 312.781 304.159 280.745 316.618C248.708 328.822 204.976 310.515 157.43 296.023C110.138 281.53 58.7777 270.851 29.0296 238.56C-0.718565 206.27 -8.8548 152.113 10.4688 113.211C29.5381 74.3099 75.813 50.4097 114.714 32.1032C153.87 13.7966 185.398 1.33798 217.689 0.0666877C250.234 -0.950343 283.542 9.72847 323.46 27.7808Z" fill="#E1E1E1"/>
<path d="M307.6 360.499H364.078V368.284H307.6V360.499Z" fill="" stroke="white"/>
<path d="M366.37 351.214H308.891V359.999H366.37V351.214Z" fill=""/>
<path d="M307.6 342.93H364.078V350.714H307.6V342.93Z" fill="" stroke="white"/>
<path d="M339.932 307.575V307.345L339.084 307.461L338.238 307.345V307.575L323.163 309.619L327.684 342.43H338.238H339.932H350.485L355.006 309.619L339.932 307.575Z" fill=""/>
<path d="M355.572 300.526H322.598V305.072H355.572V300.526Z" fill="#A9AEAB"/>
<path d="M339.932 307.345L339.084 307.461L338.238 307.345V307.575L323.163 309.619L323.474 311.881H354.696L355.006 309.619L339.932 307.575V307.345Z" fill=""/>
<path d="M358.646 305.072H319.523V309.619H358.646V305.072Z" fill=""/>
<path d="M258.891 207.279C258.891 207.279 253.18 194.466 258.486 135.454C263.792 76.443 215.496 72.366 206.358 72.366C197.221 72.366 148.925 76.444 154.23 135.454C159.536 194.465 153.824 207.279 153.824 207.279C153.824 207.279 160.377 203.886 161.275 200.118C161.044 205.395 161.275 207.279 161.275 207.279H180.091V198.988L183.654 207.279H206.358H229.063L232.625 198.988V207.279H251.441C251.441 207.279 251.673 205.395 251.441 200.118C252.34 203.887 258.891 207.279 258.891 207.279Z" fill="#242629"/>
<path d="M216.745 189.943H206.783H206.543H196.581V208.598L206.783 211.763L216.745 208.598V189.943Z" fill="#EFB59E"/>
<path d="M243.952 131.909C234.53 107.413 206.643 94.601 206.643 94.601C206.643 94.601 178.756 107.413 169.334 131.909C166.084 140.358 165.19 187.306 206.643 194.843C248.096 187.306 247.202 140.358 243.952 131.909Z" fill="#FFD4B2"/>
<path d="M166.022 129.829C166.022 129.829 152.205 129.73 151.341 143.978C150.478 158.226 159.903 165.481 171.265 163.831C167.45 145.758 166.022 129.829 166.022 129.829Z" fill=""/>
<path d="M247.303 129.829C247.303 129.829 261.12 129.73 261.984 143.978C262.847 158.226 253.422 165.481 242.06 163.831C245.876 145.758 247.303 129.829 247.303 129.829Z" fill=""/>
<path d="M226.847 119.304C226.847 119.304 219.454 132.749 211.918 136.518C204.382 140.287 200.237 138.025 205.513 130.865C193.453 140.286 174.233 151.215 176.117 139.909C169.334 146.316 165.567 145.173 164.622 129.829C163.856 117.392 167.951 86.875 204.946 84.377C240.987 81.943 254.841 118.521 245.946 141.267C241.803 142.775 230.845 136.761 226.847 119.304Z" fill="#242629"/>
<path d="M242.191 94.746C233.827 85.653 221.866 80.995 206.643 80.881V80.87C206.546 80.87 206.453 80.875 206.358 80.876C206.263 80.875 206.172 80.87 206.074 80.87V80.881C190.852 80.996 178.89 85.653 170.528 94.746C156.061 110.476 157.814 133.572 157.896 134.547L164.656 133.981C164.638 133.772 163.048 112.9 175.52 99.338C182.601 91.64 192.977 87.714 206.359 87.658C219.721 87.714 230.087 91.628 237.167 99.303C249.62 112.806 248.08 133.775 248.063 133.985L254.823 134.547C254.903 133.572 256.657 110.475 242.191 94.746Z" fill="white"/>
<path d="M248.56 160.366C249.665 160.366 250.56 159.582 250.56 158.616C250.56 157.649 249.665 156.866 248.56 156.866C247.455 156.866 246.56 157.649 246.56 158.616C246.56 159.582 247.455 160.366 248.56 160.366Z" fill="#242629"/>
<path d="M179.942 214.25C179.942 214.25 160.775 225.555 153.824 232.338C146.874 239.122 136.759 286.323 136.759 286.323C136.759 286.323 110.958 324.195 100.682 337.116C104.074 346.16 122.379 356.147 122.379 356.147C122.379 356.147 132.177 345.576 151.019 325.427C167.127 308.203 210.185 247.601 212.446 248.731C214.707 249.862 255.031 235.73 255.031 235.73C255.031 235.73 251.751 226.482 233.198 214.249C218.32 217.279 206.643 212.336 206.643 212.336L179.942 214.25Z" fill=""/>
<path d="M196.581 202.945L206.783 211.763L196.581 232.339L179.942 214.25L196.581 202.945Z" fill="white"/>
<path d="M216.559 202.945L206.358 211.763L216.559 232.339L233.198 214.25L216.559 202.945Z" fill="white"/>
<path d="M104.08 336C104.08 336 108.848 344.319 113.401 345.885C115.01 350.068 108.47 354.11 108.47 354.11C108.47 354.11 107.816 349.086 103.729 347.779C99.6435 346.47 104.08 336 104.08 336Z" fill="#EFB59E"/>
<path d="M97.4238 343.464L97.4038 344.104L97.3838 343.464C92.9588 343.464 76.9418 347.409 82.9778 365.982C91.3648 365.982 95.0868 365.982 96.7408 365.982C98.0628 365.982 98.0668 365.982 98.0668 365.982C99.7208 365.982 103.443 365.982 111.83 365.982C117.867 347.409 101.85 343.464 97.4238 343.464Z" fill="#657C83"/>
<path d="M97.4056 358.867C98.8979 358.867 100.108 355.769 100.108 351.947C100.108 348.125 98.8979 345.027 97.4056 345.027C95.9133 345.027 94.7036 348.125 94.7036 351.947C94.7036 355.769 95.9133 358.867 97.4056 358.867Z" fill=""/>
<path d="M103.05 333.832C101.816 333.418 98.3949 333.201 97.1969 338.738C95.9989 344.275 96.9429 351.225 100.209 351.004C103.475 350.783 104.57 344.718 104.642 340.816C104.713 336.913 104.719 334.392 103.05 333.832Z" fill="#FFD4B2"/>
<path d="M93.5381 337.685C92.3521 337.716 89.3491 338.601 90.0541 343.725C90.7591 348.85 93.7431 354.513 96.4751 353.303C99.2071 352.088 98.2501 346.546 97.0911 343.179C95.9301 339.808 95.1461 337.642 93.5381 337.685Z" fill="#FFD4B2"/>
<path d="M84.1231 343.703C83.1561 344.378 81.0721 346.712 83.9591 350.339C86.8481 353.968 91.8631 356.773 93.5751 354.327C95.2881 351.881 92.0032 348.065 89.5292 346.061C87.0542 344.057 85.4331 342.79 84.1231 343.703Z" fill="#FFD4B2"/>
<path d="M116.957 346.147C116.016 345.518 113.203 344.469 110.969 348.315C108.735 352.161 107.977 357.621 110.759 358.298C113.542 358.976 115.805 354.71 116.734 351.799C117.662 348.888 118.229 346.999 116.957 346.147Z" fill="#FFD4B2"/>
<path d="M126.305 367.383C126.305 368.154 124.505 368.784 122.305 368.784H72.5049C70.3049 368.784 68.5049 368.153 68.5049 367.383C68.5049 366.613 70.3049 365.982 72.5049 365.982H122.305C124.505 365.981 126.305 366.612 126.305 367.383Z" fill=""/>
<path d="M237.062 311.333C252.831 287.599 249.201 266.181 249.201 266.181L207.195 247.362L207.221 245.342L204.953 246.358L202.684 245.342L202.711 247.362L160.704 266.181C160.704 266.181 157.076 287.599 172.842 311.333C156.388 347.222 148.086 368.784 148.086 368.784H204.347H205.558H261.82C261.82 368.784 253.517 347.221 237.062 311.333Z" fill=""/>
<path d="M248.559 158.853C248.559 158.853 249.754 185.421 220.36 185.421" stroke="#6894A7" stroke-width="2" stroke-miterlimit="10" stroke-linecap="round" stroke-linejoin="round"/>
<path d="M216.745 187.555C220.654 187.555 223.823 186.318 223.823 184.792C223.823 183.266 220.654 182.029 216.745 182.029C212.836 182.029 209.667 183.266 209.667 184.792C209.667 186.318 212.836 187.555 216.745 187.555Z" fill="#657C83"/>
<path d="M255.988 199.618C255.988 199.618 250.924 183.597 247.5 182.17C244.077 180.744 230.898 171.764 228.536 175.426C225.47 180.177 240.872 185.44 240.872 185.44C240.872 185.44 229.595 189.987 231.602 196.425C233.244 201.695 235.748 203.967 237.12 198.878C236.508 207.462 240.48 205.009 240.48 205.009C240.48 205.009 252.347 201.785 255.988 199.618Z" fill="#EFB59E"/>
<path d="M293.313 252.34L256.886 197.476C256.886 197.476 245.333 193.477 237.876 206.486C245.906 225.487 265.452 273.787 265.452 273.787C265.452 273.787 305.208 289.416 293.313 252.34Z" fill=""/>
<path d="M301.893 225.556C300.429 225.556 230.62 225.556 209.547 225.556C209.547 225.556 207.405 225.556 203.768 225.556C182.694 225.556 112.463 225.556 111.001 225.556C109.287 225.556 104.397 226.772 104.967 233.454C105.538 240.139 117.614 329.421 118.757 334.28C119.9 339.142 125.394 333.644 129.393 333.644C132.742 333.644 185.752 333.644 204.36 333.644C207.979 333.644 207.893 330.116 207.893 330.116C226.5 330.116 279.793 333.866 283.143 333.866C287.144 333.866 293.001 335.728 294.143 330.866C295.287 326.007 307.777 240.138 308.348 233.454C308.919 226.771 304.253 225.556 301.893 225.556Z" fill="#AEAEAE"/>
<path d="M302.541 233.469C301.095 233.469 230.179 233.469 209.333 233.469C209.333 233.469 207.214 233.469 203.617 233.469C182.771 233.469 111.856 233.469 110.41 233.469C108.714 233.469 105.322 234.6 105.887 240.818C106.453 247.037 116.627 328.436 117.758 332.959C118.888 337.481 121.15 339.177 125.107 339.177C128.42 339.177 185.212 339.177 203.617 339.177C207.195 339.177 209.333 339.177 209.333 339.177C227.738 339.177 284.53 339.177 287.844 339.177C291.801 339.177 294.063 337.482 295.193 332.959C296.324 328.437 306.499 247.037 307.064 240.818C307.629 234.6 304.237 233.469 302.541 233.469Z" fill="#EDEDED"/>
<path d="M219.47 293.2H193.845V364.215H219.47V293.2Z" fill="#C7C7C7"/>
<path d="M219.47 293.2H193.845V298.1H219.47V293.2Z" fill="#A9AEAB"/>
<path d="M241.03 365.392C241.03 366.907 239.534 368.284 237.53 368.284H175.786C173.781 368.284 172.286 366.908 172.286 365.392C172.286 363.877 173.781 362.5 175.786 362.5H237.53C239.534 362.501 241.03 363.877 241.03 365.392Z" fill="" stroke="white"/>
<path d="M383.314 368.784H32V385.366H383.314V368.784Z" fill="#BC9C7F"/>
<path d="M383.314 373.659H32V385.366H383.314V373.659Z" fill="#6F5C4C"/>
<path d="M373.56 385.366H41.5601V472.366H373.56V385.366Z" fill="#BC9C7F"/>
<path d="M373.56 385.366H41.5601V389.366H373.56V385.366Z" fill="#A08165"/>
<path d="M136.893 189.944L127.501 174.85C128.71 171.479 129.372 167.848 129.372 164.062C129.372 146.407 115.06 132.095 97.404 132.095C79.749 132.095 65.437 146.407 65.437 164.062C65.437 181.717 79.749 196.029 97.404 196.029C105.967 196.029 113.737 192.655 119.476 187.174L136.893 189.944Z" fill=""/>
<path d="M272.398 128.783L281.79 113.689C280.582 110.318 279.919 106.688 279.919 102.901C279.919 85.246 294.231 70.934 311.887 70.934C329.542 70.934 343.854 85.246 343.854 102.901C343.854 120.556 329.542 134.868 311.887 134.868C303.325 134.868 295.553 131.495 289.815 126.013L272.398 128.783Z" fill=""/>
<path d="M123.96 69.286C123.969 68.709 119.792 65.128 119.792 65.128C118.602 64.214 117.067 62.198 116.38 60.649C116.38 60.649 114.03 56.008 113.569 56C113.111 55.995 110.405 61.218 110.405 61.218C109.697 62.752 108.135 64.728 106.935 65.614C106.935 65.614 103.243 68.711 103.214 69.314H103.231C103.231 69.322 103.214 69.338 103.214 69.341C103.205 69.923 107.384 73.498 107.384 73.498C108.574 74.418 110.109 76.431 110.796 77.979C110.796 77.979 113.148 82.623 113.608 82.627C114.065 82.635 116.771 77.409 116.771 77.409C117.48 75.881 119.041 73.9 120.242 73.012C120.242 73.012 123.934 69.918 123.961 69.314H123.946C123.945 69.309 123.96 69.293 123.96 69.286Z" fill=""/>
<path d="M139.874 79.841C139.88 79.456 137.095 77.07 137.095 77.07C136.302 76.461 135.28 75.118 134.822 74.085C134.822 74.085 133.255 70.991 132.948 70.986C132.643 70.982 130.84 74.465 130.84 74.465C130.368 75.487 129.328 76.804 128.528 77.395C128.528 77.395 126.067 79.459 126.048 79.861H126.059C126.059 79.867 126.048 79.878 126.048 79.879C126.042 80.266 128.827 82.649 128.827 82.649C129.621 83.262 130.643 84.603 131.101 85.636C131.101 85.636 132.669 88.731 132.975 88.734C133.28 88.739 135.082 85.256 135.082 85.256C135.555 84.237 136.595 82.918 137.396 82.325C137.396 82.325 139.857 80.263 139.875 79.861H139.865C139.864 79.856 139.874 79.846 139.874 79.841Z" fill=""/>
<path d="M290.637 181.656C290.628 181.16 294.225 178.077 294.225 178.077C295.249 177.289 296.571 175.555 297.162 174.221C297.162 174.221 299.185 170.226 299.583 170.218C299.976 170.214 302.307 174.71 302.307 174.71C302.916 176.03 304.26 177.731 305.293 178.495C305.293 178.495 308.473 181.161 308.496 181.68H308.482C308.482 181.687 308.496 181.701 308.496 181.703C308.504 182.203 304.906 185.281 304.906 185.281C303.883 186.073 302.561 187.805 301.969 189.138C301.969 189.138 299.945 193.136 299.549 193.139C299.155 193.146 296.826 188.647 296.826 188.647C296.216 187.332 294.872 185.627 293.838 184.862C293.838 184.862 290.66 182.199 290.637 181.679H290.65C290.65 181.676 290.637 181.662 290.637 181.656Z" fill=""/>
<path d="M276.938 190.742C276.933 190.41 279.331 188.356 279.331 188.356C280.014 187.832 280.893 186.675 281.288 185.786C281.288 185.786 282.637 183.123 282.901 183.118C283.164 183.115 284.715 186.113 284.715 186.113C285.121 186.992 286.017 188.126 286.706 188.635C286.706 188.635 288.824 190.412 288.841 190.758H288.831C288.831 190.763 288.841 190.773 288.841 190.774C288.846 191.108 286.448 193.159 286.448 193.159C285.764 193.687 284.885 194.841 284.49 195.73C284.49 195.73 283.141 198.395 282.877 198.397C282.615 198.401 281.064 195.403 281.064 195.403C280.657 194.527 279.761 193.39 279.072 192.88C279.072 192.88 276.954 191.105 276.938 190.758H276.947C276.947 190.755 276.938 190.746 276.938 190.742Z" fill=""/>
</svg>
