<svg width="44" height="44" viewBox="0 0 44 44" fill="" xmlns="http://www.w3.org/2000/svg">
<path d="M31.4531 34.0312C30.9787 34.0312 30.5938 34.4162 30.5938 34.8906C30.5938 35.365 30.9787 35.75 31.4531 35.75C31.9275 35.75 32.3125 35.365 32.3125 34.8906C32.3125 34.4162 31.9275 34.0312 31.4531 34.0312Z" fill=""/>
<path d="M33.5691 31.2523L29.4845 29.891L28.0181 26.9583C29.3391 25.6137 30.2564 23.8346 30.5656 21.9789L30.7485 20.8828H32.3125C33.7341 20.8828 34.8906 19.7263 34.8906 18.3047V12.8906C34.8906 5.78273 29.1079 0 22 0C14.8739 0 9.10938 5.76615 9.10938 12.8906V18.3047C9.10938 19.425 9.8279 20.3802 10.8281 20.735V21.7422C10.8281 23.1638 11.9847 24.3203 13.4062 24.3203H14.161C14.5335 25.1296 15.0157 25.8791 15.6025 26.5525C15.7242 26.6924 15.8511 26.828 15.9811 26.9599L14.5155 29.891L10.4308 31.2524C5.6815 32.836 2.23438 37.8358 2.23438 43.1406C2.23438 43.6153 2.61912 44 3.09375 44H40.9062C41.3808 44 41.7656 43.6153 41.7656 43.1406C41.7656 37.8358 38.3186 32.836 33.5691 31.2523ZM33.1719 18.3047C33.1719 18.7785 32.7864 19.1641 32.3125 19.1641H31.0009C31.2194 17.472 31.365 15.6713 31.4235 13.8978C31.4252 13.8478 31.4266 13.7992 31.4281 13.75H33.1719V18.3047ZM11.6875 19.1641C11.2136 19.1641 10.8281 18.7785 10.8281 18.3047V13.75H12.5725C12.5753 13.8396 12.5783 13.9297 12.5817 14.0204C12.5818 14.0235 12.5819 14.0265 12.582 14.0296C12.582 14.0298 12.582 14.0301 12.582 14.0303C12.6422 15.7553 12.7859 17.5092 12.9993 19.164H11.6875V19.1641ZM13.4062 22.6016C12.9324 22.6016 12.5469 22.216 12.5469 21.7422V20.8828H13.2514L13.4343 21.9793C13.4692 22.1877 13.512 22.3953 13.5616 22.6016H13.4062ZM12.5483 12.0312H10.8608C11.2961 6.27163 16.1027 1.71875 22 1.71875C27.8711 1.71875 32.6989 6.27103 33.1391 12.0312H31.4518C31.3899 7.28518 27.525 3.4375 22.7692 3.4375H21.2309C16.4752 3.4375 12.6101 7.28518 12.5483 12.0312ZM21.2309 5.15625H22.7691C26.6199 5.15625 29.7366 8.30595 29.7344 12.1524C29.7344 12.4229 29.7322 12.6583 29.7277 12.8726C29.7277 12.8753 29.7276 12.8782 29.7276 12.881L28.6527 12.7274C25.7325 12.3105 22.9753 10.9319 20.8889 8.84546C20.7277 8.68433 20.5092 8.59375 20.2812 8.59375C17.9733 8.59375 15.764 9.64528 14.3036 11.4218C14.6635 7.92249 17.6217 5.15625 21.2309 5.15625ZM15.3433 22.6016C14.9131 21.1704 14.4208 16.9595 14.312 14.2611L15.4687 12.7188C16.5309 11.3029 18.1836 10.4232 19.9416 10.3222C22.2548 12.5236 25.2473 13.9773 28.4096 14.4288L29.6748 14.6096C29.5903 16.4044 29.4174 18.2055 29.1699 19.862C29.1698 19.8625 29.1697 19.8631 29.1696 19.8637C29.0909 20.3962 29.0288 20.739 28.8704 21.6962C28.4152 24.426 26.3783 26.8946 23.6894 27.5669C22.5828 27.8431 21.417 27.8431 20.311 27.5669C18.632 27.1471 17.0925 25.9854 16.099 24.3203H17.8509C18.2057 25.3205 19.1609 26.0391 20.2812 26.0391H22C23.4244 26.0391 24.5781 24.8854 24.5781 23.4609C24.5781 22.0394 23.4216 20.8828 22 20.8828H20.2812C19.136 20.8828 18.1949 21.6226 17.8495 22.6016H15.3433ZM20.209 29.3061C20.7984 29.4302 21.3994 29.4938 22 29.4938C22.4702 29.4938 22.9404 29.4544 23.4053 29.3781L21.8868 30.984L20.209 29.3061ZM20.7054 32.2334L17.9796 35.1159C17.2292 33.6795 16.5844 32.1846 16.0555 30.6543L17.0791 28.607L20.7054 32.2334ZM26.7752 28.3159L27.9443 30.6542C27.4146 32.1871 26.7696 33.6825 26.02 35.1172L23.1026 32.1997L26.7752 28.3159ZM19.4219 23.4609C19.4219 22.9865 19.8067 22.6016 20.2812 22.6016H22C22.4739 22.6016 22.8594 22.9871 22.8594 23.4609C22.8594 23.9355 22.4745 24.3203 22 24.3203H20.2812C19.8074 24.3203 19.4219 23.9348 19.4219 23.4609ZM3.9875 42.2812C4.32807 38.024 7.16134 34.1544 10.9744 32.8829L14.5918 31.6773C15.2546 33.51 16.0756 35.2912 17.0379 36.9831C17.0395 36.986 17.0411 36.989 17.0427 36.9918C17.0427 36.9919 17.0428 36.9919 17.0428 36.992C17.7458 38.2285 18.5371 39.4369 19.3951 40.5841L20.4523 42.2812H3.9875ZM22 41.5152L20.8345 39.6441C20.8215 39.6231 20.8075 39.6027 20.7927 39.583C20.0968 38.6547 19.4477 37.6839 18.8564 36.6902L21.9212 33.4491L25.1506 36.6785C24.5554 37.6794 23.9039 38.6543 23.2074 39.5828C23.1653 39.6389 23.225 39.5505 22 41.5152ZM23.5477 42.2812L24.6049 40.5842C25.4665 39.4326 26.2635 38.2145 26.9736 36.9634C26.9779 36.9559 26.982 36.9481 26.9863 36.9406C26.9868 36.9396 26.9873 36.9388 26.9878 36.9378C27.9379 35.262 28.7503 33.4963 29.4082 31.6773L33.0255 32.8829C36.8387 34.1544 39.6719 38.024 40.0125 42.2812H23.5477Z" fill=""/>
<path d="M37.4295 38.8035C36.8552 37.6539 36.0139 36.6327 34.9967 35.8501C34.6205 35.5606 34.0809 35.631 33.7916 36.0072C33.5021 36.3834 33.5725 36.923 33.9487 37.2124C34.7611 37.8374 35.433 38.6532 35.8918 39.5716C36.1043 39.9969 36.6208 40.1681 37.0447 39.9564C37.4692 39.7443 37.6415 39.2281 37.4295 38.8035Z" fill=""/>
</svg>
