<svg width="26" height="26" viewBox="0 0 26 26" fill="" xmlns="http://www.w3.org/2000/svg">
<g clip-path="url(#clip0)">
<path d="M0.9394 12.5996L6.6767 14.7383L8.89839 21.877C9.03999 22.336 9.60151 22.502 9.9726 22.1992L13.1708 19.5918C13.5078 19.3184 13.9814 19.3037 14.333 19.5576L20.0996 23.7422C20.4951 24.0303 21.0615 23.8155 21.1591 23.3321L25.3828 3.00978C25.4902 2.50197 24.9726 2.06252 24.4746 2.25783L0.934517 11.335C0.353462 11.5596 0.358345 12.3848 0.9394 12.5996ZM8.53706 13.6006L19.748 6.69631C19.9482 6.57424 20.1582 6.84279 19.9824 7.00393L10.7343 15.6074C10.4072 15.9102 10.1972 16.3154 10.1386 16.7549L9.82124 19.0889C9.77729 19.4014 9.34272 19.4307 9.25483 19.128L8.04389 14.8701C7.90717 14.3867 8.10737 13.8692 8.53706 13.6006Z" fill=""/>
</g>
<defs>
<clipPath id="clip0">
<rect width="25" height="25" fill="white" transform="translate(0.499939 0.5)"/>
</clipPath>
</defs>
</svg>
