<svg width="36" height="36" viewBox="0 0 36 36" fill="" xmlns="http://www.w3.org/2000/svg">
<path fill-rule="evenodd" clip-rule="evenodd" d="M18.2542 5.55237C18.1511 5.55237 18.0487 5.55359 17.9435 5.55603H17.9424C15.8207 5.61914 13.739 6.20947 11.9219 7.26379C8.9126 8.99963 6.72211 11.9388 5.91095 15.3302L5.90674 15.3496L5.90595 15.3538C5.85822 15.605 5.93036 15.8636 6.09589 16.0641C6.26825 16.2727 6.52625 16.4004 6.79157 16.4004C6.91223 16.4004 7.02918 16.3749 7.13739 16.3239C10.1771 14.9127 14.1323 14.1318 18.2744 14.1318C22.4241 14.1318 26.3867 14.9143 29.4351 16.3295L29.4409 16.3319C29.7916 16.4797 30.2138 16.3525 30.4568 16.0555C30.621 15.8551 30.6917 15.5979 30.6418 15.3472L30.6408 15.3429L30.6379 15.3298L30.6372 15.3269C30.3394 14.0981 29.8831 12.9529 29.2809 11.9243C27.0136 7.99365 22.7888 5.55237 18.2542 5.55237ZM17.9838 7.31213C18.0775 7.30981 18.1715 7.30847 18.2648 7.30847C22.1685 7.30847 25.8099 9.41296 27.767 12.7994C27.9935 13.1881 28.1928 13.5977 28.3702 14.041C25.36 12.9496 21.8834 12.3761 18.2744 12.3761C14.6907 12.3761 11.2308 12.9446 8.22681 14.0262C9.1435 11.8126 10.7489 9.96399 12.7927 8.78088C14.3783 7.86499 16.1735 7.35718 17.9838 7.31213Z" fill=""/>
<path fill-rule="evenodd" clip-rule="evenodd" d="M7.99555 18.2152C7.43463 18.2152 6.86945 18.2733 6.3183 18.3878C5.88617 18.4636 5.58594 18.8745 5.61743 19.3168L5.61756 19.3185C5.76917 21.1842 6.34381 23.0157 7.27936 24.6158C9.2818 28.095 12.7189 30.3767 16.7067 30.875C16.7437 30.88 16.7803 30.8823 16.8163 30.8823C17.2531 30.8823 17.6345 30.5426 17.6923 30.1067L17.6926 30.1031C17.7357 29.7178 17.7546 29.3021 17.7546 28.7577C17.7541 22.9573 13.3889 18.2152 7.99555 18.2152ZM16.7296 30.7008L16.7079 30.875H16.7067L16.7055 30.8748L16.7296 30.7008ZM6.35102 18.5605L6.31537 18.3884L6.3183 18.3878L6.32154 18.3872L6.35102 18.5605ZM7.68524 19.9847C7.6156 19.9904 7.54737 19.9973 7.48175 20.005C7.68683 21.3408 8.12409 22.5972 8.78296 23.7435C10.3297 26.4252 12.9508 28.3115 16.007 28.9528C16.0096 28.8827 16.0109 28.8182 16.0109 28.757C16.0109 23.8978 12.4009 19.9714 7.99555 19.9714C7.89136 19.9714 7.78681 19.9766 7.68524 19.9847Z" fill=""/>
<path fill-rule="evenodd" clip-rule="evenodd" d="M28.5645 18.2156C23.1584 18.2156 18.7824 22.957 18.7824 28.7576C18.7824 29.2039 18.8149 29.6534 18.8815 30.1317L18.8817 30.1328C18.9426 30.5524 19.3367 30.8806 19.7618 30.8806C19.7743 30.8806 19.7865 30.8804 19.7985 30.8799L19.8212 30.8785L19.8459 30.8762L19.8508 30.8756C21.5368 30.6619 23.1397 30.1202 24.6143 29.2659C28.2276 27.1852 30.5894 23.4659 30.9315 19.3156L30.9316 19.3135C30.9629 18.8718 30.6453 18.4563 30.2123 18.3872C29.588 18.2708 29.0635 18.2156 28.5645 18.2156ZM22.9008 22.5222C24.4197 20.8752 26.4308 19.9718 28.5644 19.9718C28.6693 19.9718 28.774 19.9772 28.878 19.9861C28.9401 19.9913 29.0019 19.9978 29.0633 20.0051C28.5366 23.2902 26.6094 26.1051 23.7453 27.7582C22.7556 28.3262 21.6761 28.733 20.5328 28.9695C20.528 28.8923 20.5258 28.8226 20.5258 28.7573C20.5256 26.3949 21.3703 24.1813 22.9008 22.5222Z" fill=""/>
<path fill-rule="evenodd" clip-rule="evenodd" d="M18.0819 1C15.1245 1.04199 12.2051 1.84485 9.63898 3.32202C5.64716 5.62769 2.79053 9.35034 1.59656 13.803C0.402652 18.2551 1.01337 22.9081 3.31562 26.9026C6.39685 32.2332 12.1345 35.5441 18.2907 35.5442C21.2993 35.5442 24.2755 34.7444 26.8956 33.2312C30.888 30.9255 33.7468 27.2006 34.9443 22.7443C36.142 18.2869 35.5338 13.6318 33.2319 9.63818C31.7228 7.02368 29.5508 4.84509 26.9505 3.33777C24.4295 1.87634 21.5568 1.06812 18.6346 1H18.0819ZM18.3057 2.75012C18.3544 2.74902 18.4001 2.74805 18.4454 2.74805C18.4781 2.74805 18.5095 2.74866 18.54 2.75012C18.5532 2.75073 18.5662 2.75159 18.579 2.75256L18.6017 2.75378L18.6065 2.75391C24.0802 2.87415 28.9814 5.77307 31.7195 10.509C33.7938 14.0972 34.3469 18.2733 33.2772 22.2697C32.2043 26.2778 29.6298 29.6276 26.0265 31.703C23.6619 33.0687 20.9808 33.7903 18.2736 33.7903C12.7518 33.7903 7.60474 30.8165 4.84156 26.0305C2.7638 22.4362 2.20746 18.257 3.27442 14.2612C4.34235 10.2612 6.91089 6.91455 10.5082 4.83679C12.8252 3.50024 15.448 2.78015 18.0899 2.75391L18.2858 2.75073L18.296 2.75049L18.3057 2.75012Z" fill=""/>
</svg>
