<svg width="64" height="64" viewBox="0 0 64 64" fill="" xmlns="http://www.w3.org/2000/svg">
<g clip-path="url(#clip0)">
<path d="M51.0919 17.9081C49.6715 16.4879 48.1205 15.2458 46.4665 14.192L48.2713 11.066L50.2891 12.231C50.4466 12.322 50.6185 12.3651 50.7882 12.3651C51.1339 12.3651 51.47 12.1858 51.6553 11.865C51.9314 11.3868 51.7675 10.7751 51.2892 10.499L45.5539 7.18775C45.0755 6.91138 44.464 7.07538 44.1879 7.55375C43.9117 8.032 44.0756 8.64363 44.5539 8.91975L46.5392 10.066L44.7409 13.1809C41.1548 11.2568 37.1596 10.1706 33 10.0201V9.89937C35.2795 9.43487 37 7.41463 37 5C37 2.243 34.757 0 32 0C29.243 0 27 2.243 27 5C27 7.4145 28.7205 9.43487 31 9.89937V10.0201C24.1632 10.2675 17.7712 13.045 12.9081 17.9081C7.8085 23.0079 5 29.7881 5 37C5 44.2119 7.8085 50.9922 12.9081 56.0919C18.0077 61.1915 24.788 64 32 64C39.212 64 45.9922 61.1915 51.0919 56.0919C56.1915 50.9922 59 44.2119 59 37C59 29.7881 56.1915 23.0079 51.0919 17.9081ZM29 5C29 3.34588 30.3459 2 32 2C33.6541 2 35 3.34588 35 5C35 6.30363 34.1639 7.41512 33 7.828V5C33 4.44775 32.5522 4 32 4C31.4478 4 31 4.44775 31 5V7.828C29.8361 7.41512 29 6.30363 29 5ZM32 62C18.215 62 7 50.785 7 37C7 23.215 18.215 12 32 12C45.785 12 57 23.215 57 37C57 50.785 45.785 62 32 62Z" fill="" stroke="9" stroke-width="0.4"/>
<path d="M51.5965 24.9535C51.3069 24.4833 50.691 24.3366 50.2206 24.6265C49.7504 24.9161 49.604 25.5321 49.8936 26.0024C51.9259 29.3015 53 33.1044 53 37C53 48.5795 43.5795 58 32 58C20.4205 58 11 48.5795 11 37C11 25.4205 20.4205 16 32 16C35.8942 16 39.6959 17.0734 42.9941 19.1042C43.4645 19.3936 44.0804 19.2475 44.3699 18.777C44.6595 18.3068 44.513 17.6907 44.0426 17.4011C40.4291 15.1761 36.2647 14 32 14C19.3177 14 9 24.3177 9 37C9 49.6823 19.3177 60 32 60C44.6823 60 55 49.6823 55 37C55 32.7337 53.823 28.5681 51.5965 24.9535Z" fill=""/>
<path d="M45.9992 21.3466C46.5781 21.8649 47.1344 22.4211 47.6528 23.0002C47.8503 23.221 48.1237 23.3334 48.3983 23.3334C48.6357 23.3334 48.8741 23.2492 49.0649 23.0785C49.4764 22.7102 49.5114 22.078 49.1431 21.6665C48.5757 21.0326 47.9667 20.4236 47.3329 19.8565C46.9214 19.488 46.2892 19.5232 45.9209 19.9347C45.5526 20.3462 45.5876 20.9784 45.9992 21.3466Z" fill=""/>
<path d="M38.2419 19.0545C36.2859 18.3723 34.1858 18 32 18C31.4477 18 31 18.4477 31 19V25.9998V26.0004V31.9998V32.0004V37C31 37.2652 31.1054 37.5195 31.2929 37.7071L44.0209 50.435C44.2161 50.6303 44.472 50.7279 44.728 50.7279C44.984 50.7279 45.2399 50.6303 45.4351 50.435C49.0236 46.8464 51 42.0751 51 37C51 35.406 50.8016 33.8576 50.4301 32.3771C50.4228 32.3355 50.4126 32.2945 50.3999 32.254C50.001 30.7085 49.4112 29.239 48.6587 27.8713C48.6314 27.8065 48.5965 27.7445 48.5549 27.6856C47.8427 26.4249 46.9914 25.2528 46.0207 24.1911C45.9912 24.1513 45.9596 24.1125 45.9235 24.0764C45.9039 24.0567 45.8832 24.0389 45.8625 24.0214C43.8149 21.8356 41.2581 20.133 38.383 19.1044C38.337 19.0841 38.29 19.0675 38.2419 19.0545ZM40.375 22.2108L33 29.5858V26.4142L38.2308 21.1834C38.9724 21.4766 39.6885 21.8204 40.375 22.2108ZM43.806 24.7799L33 35.5858V32.4142L42.0881 23.3261C42.6924 23.7731 43.2666 24.2585 43.806 24.7799ZM46.4814 28.1044L35.5 39.0858L33.9142 37.5L45.1616 26.2528C45.641 26.8388 46.0824 27.4571 46.4814 28.1044ZM48.3264 32.2595L38.5 42.0859L36.9142 40.5L47.4665 29.9478C47.8069 30.6912 48.0949 31.4635 48.3264 32.2595ZM49 37C49 37.1996 48.9955 37.3985 48.9886 37.597L41.5 45.0858L39.9142 43.5L48.8284 34.5859C48.941 35.3748 49 36.1806 49 37ZM36.0876 20.498L33 23.5858V20.029C34.058 20.0907 35.0899 20.2507 36.0876 20.498ZM44.7076 48.2934L42.9142 46.5L48.5649 40.8494C47.931 43.6013 46.6171 46.1504 44.7076 48.2934Z" fill=""/>
</g>
<defs>
<clipPath id="clip0">
<rect width="64" height="64" fill=""/>
</clipPath>
</defs>
</svg>
