<svg width="36" height="36" viewBox="0 0 36 36" fill="" xmlns="http://www.w3.org/2000/svg">
<path d="M25.9934 23.9625C25.9934 24.3933 25.6442 24.7425 25.2132 24.7425C24.7823 24.7425 24.432 24.3933 24.432 23.9625C24.432 23.5317 24.7804 23.1826 25.2114 23.1826H25.2132C25.6442 23.1826 25.9934 23.5317 25.9934 23.9625ZM18.2881 2.55995C18.2994 2.55995 18.3106 2.55995 18.3219 2.55995L17.8441 3.25143C17.5993 3.60588 17.6881 4.09162 18.0427 4.33644C18.3973 4.58109 18.8832 4.49235 19.1282 4.1379L20.3978 2.30031C20.4386 2.24346 20.472 2.18072 20.4965 2.11338C20.5295 2.02316 20.5449 1.92896 20.5435 1.83563C20.5421 1.72184 20.5159 1.61308 20.4698 1.51497C20.4239 1.41687 20.3572 1.32744 20.2708 1.2536C20.2008 1.19363 20.1199 1.14571 20.0309 1.11329C19.9618 1.08799 19.8904 1.07308 19.8188 1.06806C13.6248 0.516536 7.58573 3.34745 4.05575 8.45725C0.522898 13.5708 0.0154061 20.2251 2.73145 25.8235C2.86634 26.1015 3.14445 26.2633 3.43399 26.2633C3.54817 26.2633 3.66425 26.238 3.77391 26.1849C4.16168 25.997 4.32353 25.5304 4.13541 25.1428C1.66436 20.0494 2.12591 13.9955 5.33973 9.34363C8.28603 5.07897 13.1528 2.55995 18.2881 2.55995ZM11.8747 23.1826H11.8729C11.4419 23.1826 11.0936 23.5317 11.0936 23.9625C11.0936 24.3933 11.4438 24.7425 11.8748 24.7425C12.3057 24.7425 12.655 24.3933 12.655 23.9625C12.655 23.5317 12.3056 23.1826 11.8747 23.1826ZM33.8129 10.7206C33.6249 10.3331 33.1582 10.1713 32.7704 10.3592C32.3827 10.5472 32.2208 11.0138 32.4089 11.4013C34.8799 16.4947 34.4184 22.5487 31.2043 27.2006C28.2582 31.4654 23.3914 33.9847 18.2561 33.9844C18.2448 33.9844 18.2337 33.9844 18.2224 33.9844L18.7001 33.2929C18.945 32.9384 18.856 32.4527 18.5015 32.2079C18.1468 31.9631 17.6609 32.0519 17.4161 32.4064L16.1478 34.2422C16.1032 34.304 16.0673 34.3729 16.042 34.447C16.0128 34.5329 15.9992 34.6221 16.0007 34.7107C16.0023 34.8177 16.0257 34.9203 16.0672 35.0137C16.1173 35.1273 16.1951 35.2301 16.2984 35.3113C16.3469 35.3495 16.4002 35.3821 16.4573 35.4081C16.5447 35.4481 16.6368 35.4706 16.7293 35.4766C17.2397 35.5219 17.7485 35.5442 18.2554 35.5442C23.8996 35.5441 29.2498 32.7747 32.4882 28.087C36.0212 22.9735 36.5289 16.319 33.8129 10.7206ZM19.4456 24.7424H15.2766C14.9213 26.2924 13.5305 27.4521 11.8739 27.4521C10.1708 27.4521 8.74852 26.2265 8.44354 24.6113C7.8595 24.4185 7.37819 24.0239 7.11743 23.5001C6.98427 23.2324 6.91682 22.9481 6.91682 22.6546V11.7226C6.91682 10.5713 7.97116 9.63456 9.26702 9.63456H18.5389C21.3713 9.63456 22.4996 10.5841 25.2253 12.8784C25.4368 13.0563 25.6591 13.2434 25.8939 13.4401C26.1983 13.695 26.4723 13.9568 26.7373 14.2099C26.9069 14.3718 27.0669 14.5247 27.2263 14.6676C27.4659 14.8825 27.6838 15.0756 27.8824 15.2514C29.6432 16.811 30.1165 17.2302 30.1633 19.3117C30.1724 19.7037 30.1689 20.4798 30.1662 21.1034L30.1641 21.5786C30.1626 21.8824 30.161 22.2289 30.161 22.6545C30.161 23.5389 29.5328 24.3061 28.6433 24.6068C28.3401 26.2243 26.917 27.4519 25.2124 27.4519C23.2876 27.4519 21.7216 25.8865 21.7216 23.9624C21.7216 22.0382 23.2875 20.4728 25.2124 20.4728C26.7541 20.4728 28.0654 21.477 28.5264 22.8654C28.5745 22.7969 28.6006 22.7241 28.6006 22.6543C28.6006 22.2258 28.6022 21.8769 28.6036 21.5711L28.6057 21.0963C28.6083 20.5147 28.6119 19.7182 28.6033 19.3471C28.5978 19.1031 28.5913 18.8999 28.5755 18.7228H16.4394C15.4092 18.7228 14.6383 18.1205 14.1481 16.9324C13.9838 16.5342 14.1735 16.0783 14.5719 15.9139C14.9704 15.7497 15.4264 15.9394 15.5907 16.3376C15.9049 17.0991 16.1936 17.1629 16.4394 17.1629H27.6747C27.4562 16.9578 27.1848 16.7175 26.8476 16.4188C26.6468 16.241 26.4264 16.0458 26.1842 15.8285C26.0067 15.6693 25.8301 15.5007 25.6592 15.3375C25.4123 15.1016 25.157 14.8578 24.8918 14.6356C24.656 14.4382 24.4326 14.2502 24.2202 14.0714C21.526 11.8037 20.8018 11.1942 18.5388 11.1942H9.26694C8.81493 11.1942 8.47718 11.473 8.47718 11.7223V22.6543C8.47718 22.7053 8.4894 22.7546 8.51437 22.8049C8.52573 22.8278 8.53994 22.8508 8.55694 22.8736C9.01545 21.4809 10.3291 20.4727 11.8739 20.4727C13.5304 20.4727 14.9211 21.6325 15.2766 23.1822H19.4456C19.8766 23.1822 20.2259 23.5314 20.2259 23.9622C20.2259 24.393 19.8765 24.7424 19.4456 24.7424ZM27.1425 23.9547C27.1383 22.8943 26.2741 22.0329 25.2124 22.0329C24.148 22.0329 23.2821 22.8985 23.2821 23.9625C23.2821 25.0265 24.148 25.8922 25.2124 25.8922C26.276 25.8922 27.1414 25.0277 27.1425 23.9647C27.1424 23.9613 27.1424 23.958 27.1425 23.9547ZM13.804 23.9625C13.804 22.8986 12.9381 22.0329 11.8739 22.0329C10.8166 22.0329 9.95509 22.887 9.94356 23.9412C9.94382 23.9537 9.94382 23.9661 9.94356 23.9788C9.95223 25.0353 10.8149 25.8922 11.8739 25.8922C12.9381 25.8921 13.804 25.0265 13.804 23.9625ZM10.8442 16.5091C10.4133 16.5091 10.064 16.8583 10.064 17.2891C10.064 17.7199 10.4133 18.0691 10.8442 18.0691H11.9385C12.3695 18.0691 12.7187 17.7199 12.7187 17.2891C12.7187 16.8583 12.3695 16.5091 11.9385 16.5091H10.8442Z" fill=""/>
</svg>
