<svg width="44" height="44" viewBox="0 0 44 44" fill="" xmlns="http://www.w3.org/2000/svg">
<g clip-path="url(#clip0)">
<path d="M12.2589 29.6685H6.65495C6.08418 29.6685 5.61719 30.1355 5.61719 30.7062V34.546C5.61719 35.1167 6.08418 35.5837 6.65495 35.5837H12.2589C12.8297 35.5837 13.2967 35.1167 13.2967 34.546V30.7062C13.2967 30.1355 12.8297 29.6685 12.2589 29.6685ZM11.2211 33.5082H7.69272V31.744H11.2211V33.5082Z" fill=""/>
<path d="M33.1183 29.6685H27.5143C26.9436 29.6685 26.4766 30.1355 26.4766 30.7062V34.546C26.4766 35.1167 26.9436 35.5837 27.5143 35.5837H33.1183C33.689 35.5837 34.156 35.1167 34.156 34.546V30.7062C34.156 30.1355 33.689 29.6685 33.1183 29.6685ZM32.0805 33.5082H28.5521V31.744H32.0805V33.5082Z" fill=""/>
<path d="M23.5292 33.4044H16.3063C15.7355 33.4044 15.2686 33.8714 15.2686 34.4422C15.2686 35.013 15.7252 35.4799 16.3063 35.4799H23.5292C24.0999 35.4799 24.5669 35.013 24.5669 34.4422C24.5669 33.8714 24.0999 33.4044 23.5292 33.4044Z" fill=""/>
<path d="M23.5292 30.4988H16.3063C15.7355 30.4988 15.2686 30.9658 15.2686 31.5365C15.2686 32.1073 15.7252 32.5743 16.3063 32.5743H23.5292C24.0999 32.5743 24.5669 32.1073 24.5669 31.5365C24.5669 30.9658 24.0999 30.4988 23.5292 30.4988Z" fill=""/>
<path d="M41.3061 5.03189L32.1011 0.123264C31.7898 -0.0427783 31.4266 -0.0427783 31.1152 0.133642L22.1386 5.04227C21.8065 5.21869 21.5886 5.57153 21.5886 5.9555V12.9085C21.5989 14.4859 21.8791 16.0529 22.4291 17.537H10.5364C9.15613 17.537 7.90043 18.3672 7.36079 19.6436L4.79751 25.6108L3.75975 26.5966C2.75311 27.4684 2.17196 28.7448 2.18234 30.0835V40.5857C2.16159 42.4537 3.65597 43.9792 5.52395 44C5.53432 44 5.53432 44 5.5447 44H7.51646C9.39481 43.9896 10.9099 42.4641 10.8996 40.5857V39.3196H28.8529V40.5753C28.8737 42.4641 30.3992 43.9896 32.2879 43.9896H34.2597C36.138 43.9792 37.6635 42.4641 37.6739 40.5753V29.8033C37.6739 28.5476 37.155 27.3542 36.2522 26.4929L35.5257 25.7249L35.0484 24.6768C39.2513 22.1861 41.825 17.6615 41.8146 12.7736V5.9555C41.8457 5.56115 41.6382 5.20831 41.3061 5.03189ZM9.27028 20.4634C9.48821 19.9446 9.98634 19.6125 10.5364 19.6021H23.3839C23.6848 20.1417 24.0169 20.6606 24.3801 21.1588C22.6367 21.8333 21.3602 23.3588 21.0074 25.206H7.24664L9.27028 20.4634ZM25.9264 22.923C26.8812 23.8258 27.9501 24.5938 29.1123 25.206H23.1452C23.5396 23.9607 24.6292 23.0682 25.9264 22.923ZM8.83442 40.5753C8.8448 41.3018 8.26365 41.9037 7.52683 41.914H5.55508C4.81827 41.914 4.26825 41.3121 4.26825 40.5753V39.0913C4.67298 39.2574 5.11922 39.33 5.55508 39.3196H8.83442V40.5753ZM35.6088 40.5753C35.6088 41.3121 35.0069 41.914 34.27 41.914H32.2983C31.5615 41.914 30.9492 41.3225 30.9388 40.5753V39.3196H34.27C34.7267 39.33 35.1833 39.2574 35.6088 39.0913V40.5753ZM35.6088 29.793V35.9573C35.6088 36.6941 35.0069 37.2441 34.27 37.2441H5.55508C4.85978 37.2649 4.28901 36.7148 4.26825 36.0195C4.26825 35.9988 4.26825 35.978 4.26825 35.9573V30.0731C4.25787 29.3363 4.57958 28.641 5.1296 28.1533C5.13997 28.1429 5.13997 28.1429 5.15035 28.1325L6.07396 27.2816H34.1351L34.7682 27.9354C34.7785 27.9457 34.7993 27.9561 34.8201 27.9769C35.3182 28.4542 35.6088 29.108 35.6088 29.793ZM39.7598 12.7632C39.7702 17.4954 36.9371 21.771 32.5681 23.6079L31.5822 24.0334L30.7416 23.6701C26.4557 21.8022 23.6745 17.5681 23.6641 12.8878V6.5574L31.5822 2.20917L39.7598 6.56778V12.7632Z" fill=""/>
<path d="M36.7711 10.4803C36.4079 10.0341 35.7541 9.97178 35.3079 10.335L30.4511 14.2889L28.6869 12.2237C28.3133 11.7879 27.6595 11.736 27.2237 12.1096C26.7878 12.4832 26.7359 13.137 27.1095 13.5728L29.5275 16.4059C29.5379 16.4163 29.5483 16.4267 29.5586 16.4371C29.569 16.4474 29.5794 16.4682 29.6002 16.4786C29.6209 16.489 29.6313 16.5097 29.6417 16.5201C29.652 16.5305 29.6728 16.5408 29.6832 16.5512C29.6936 16.5616 29.7143 16.572 29.7351 16.5824C29.7454 16.5927 29.7662 16.6031 29.7766 16.6135C29.7973 16.6239 29.8077 16.6342 29.8285 16.6446C29.8388 16.655 29.8596 16.6654 29.87 16.6654C29.8907 16.6758 29.9115 16.6861 29.9322 16.6861C29.9426 16.6965 29.9634 16.6965 29.9737 16.7069C29.9945 16.7173 30.0153 16.7173 30.036 16.7276C30.0464 16.7276 30.0671 16.738 30.0775 16.738C30.0983 16.738 30.119 16.7484 30.1398 16.7484C30.1502 16.7484 30.1709 16.7588 30.1813 16.7588C30.2124 16.7588 30.2332 16.7588 30.2643 16.7588C30.2747 16.7588 30.2851 16.7588 30.2955 16.7588C30.3266 16.7588 30.3577 16.7588 30.3889 16.7588C30.3992 16.7588 30.3992 16.7588 30.4096 16.7588C30.4304 16.7588 30.4615 16.7484 30.4823 16.7484C30.4926 16.7484 30.503 16.7484 30.5134 16.738C30.5341 16.738 30.5549 16.7276 30.5757 16.7276C30.586 16.7276 30.5964 16.7173 30.6068 16.7173C30.6275 16.7173 30.6379 16.7069 30.6587 16.6965C30.6691 16.6965 30.6794 16.6861 30.7002 16.6861C30.7106 16.6758 30.7313 16.6758 30.7417 16.6654C30.7521 16.655 30.7625 16.655 30.7832 16.6446C30.804 16.6342 30.8143 16.6342 30.8247 16.6239C30.8351 16.6135 30.8455 16.6031 30.8662 16.6031C30.8766 16.5927 30.8974 16.5824 30.9077 16.5824C30.9181 16.5824 30.9285 16.5616 30.9493 16.5512C30.9596 16.5408 30.97 16.5408 30.9804 16.5305L36.6258 11.9435C37.0721 11.5803 37.1343 10.9265 36.7711 10.4803Z" fill=""/>
</g>
<defs>
<clipPath id="clip0">
<rect width="44" height="44" fill="white"/>
</clipPath>
</defs>
</svg>
