<svg width="26" height="26" viewBox="0 0 26 26" fill="" xmlns="http://www.w3.org/2000/svg">
<g clip-path="url(#clip0)">
<path d="M25.3675 18.7498C25.3372 18.6845 25.309 18.6304 25.2828 18.5871C24.849 17.8059 24.0202 16.847 22.7966 15.7102L22.7708 15.6842L22.7578 15.6714L22.7448 15.6583H22.7316C22.1763 15.129 21.8247 14.7731 21.6774 14.5908C21.408 14.2437 21.3476 13.8923 21.4949 13.5363C21.5989 13.2673 21.9897 12.6993 22.6664 11.8314C23.0223 11.3714 23.3042 11.0027 23.5124 10.725C25.0137 8.72905 25.6646 7.45361 25.4649 6.89818L25.3874 6.76838C25.3353 6.69024 25.2008 6.61875 24.9841 6.55356C24.7669 6.4885 24.4893 6.47774 24.1508 6.5211L20.4021 6.54699C20.3414 6.52547 20.2547 6.52748 20.1417 6.55356C20.0289 6.57963 19.9724 6.59272 19.9724 6.59272L19.9072 6.62532L19.8554 6.66448C19.812 6.69037 19.7643 6.73592 19.7122 6.80102C19.6603 6.8659 19.617 6.94203 19.5823 7.02879C19.1742 8.07879 18.7102 9.05503 18.1894 9.95745C17.8683 10.4956 17.5734 10.9619 17.3041 11.3568C17.0352 11.7515 16.8095 12.0423 16.6275 12.2287C16.4451 12.4153 16.2805 12.5648 16.1327 12.6778C15.9851 12.7907 15.8725 12.8385 15.7945 12.821C15.7163 12.8035 15.6426 12.7862 15.5729 12.7689C15.4515 12.6907 15.3539 12.5845 15.2802 12.45C15.2063 12.3155 15.1565 12.1462 15.1305 11.9423C15.1046 11.7382 15.0893 11.5627 15.0849 11.4151C15.0808 11.2677 15.0827 11.0592 15.0915 10.7903C15.1005 10.5211 15.1046 10.339 15.1046 10.2436C15.1046 9.91377 15.111 9.55584 15.1239 9.16969C15.137 8.78353 15.1477 8.47757 15.1566 8.25217C15.1654 8.02655 15.1695 7.78783 15.1695 7.53617C15.1695 7.28451 15.1542 7.08715 15.1239 6.9439C15.094 6.80084 15.0481 6.66197 14.9876 6.52734C14.9267 6.39285 14.8377 6.28881 14.7208 6.21496C14.6036 6.14119 14.458 6.08265 14.2847 6.03916C13.8248 5.93507 13.2391 5.87877 12.5273 5.87002C10.9134 5.85269 9.87634 5.95691 9.41642 6.18254C9.2342 6.27787 9.0693 6.40812 8.92186 6.57289C8.76562 6.76387 8.74382 6.86809 8.85662 6.88523C9.37735 6.96324 9.746 7.14984 9.96296 7.44485L10.0412 7.60118C10.102 7.71398 10.1627 7.91366 10.2235 8.19997C10.2842 8.48628 10.3233 8.803 10.3405 9.14995C10.3839 9.78352 10.3839 10.3259 10.3405 10.777C10.2971 11.2284 10.2561 11.5797 10.2169 11.8314C10.1777 12.0831 10.1192 12.287 10.0412 12.4431C9.96296 12.5993 9.91095 12.6948 9.88487 12.7295C9.85884 12.7641 9.83713 12.7859 9.8199 12.7945C9.70711 12.8377 9.5898 12.8597 9.4684 12.8597C9.34681 12.8597 9.19937 12.7989 9.02585 12.6774C8.85238 12.5558 8.67234 12.3889 8.48574 12.1763C8.29913 11.9636 8.08869 11.6664 7.85431 11.2846C7.62011 10.9028 7.37711 10.4516 7.12545 9.93096L6.91723 9.55338C6.78707 9.31047 6.60927 8.95678 6.38364 8.49262C6.15788 8.02828 5.95833 7.57912 5.78485 7.14523C5.71551 6.96301 5.61134 6.82427 5.47251 6.72881L5.40736 6.68964C5.36405 6.655 5.29453 6.6182 5.19915 6.579C5.10364 6.53983 5.00398 6.51175 4.89976 6.49447L1.33325 6.52037C0.968794 6.52037 0.72151 6.60293 0.591303 6.76783L0.539193 6.84584C0.513161 6.88929 0.500031 6.95868 0.500031 7.05419C0.500031 7.14965 0.526063 7.26682 0.578173 7.40556C1.09882 8.62921 1.66501 9.80932 2.27674 10.9461C2.88848 12.0828 3.42007 12.9985 3.87119 13.6923C4.3224 14.3866 4.78232 15.0419 5.25094 15.6578C5.71957 16.274 6.02977 16.6688 6.18154 16.8423C6.33349 17.0161 6.45285 17.146 6.53961 17.2328L6.86508 17.5451C7.07334 17.7535 7.37916 18.0029 7.78268 18.2936C8.1863 18.5844 8.63313 18.8707 9.12341 19.1529C9.61378 19.4347 10.1843 19.6647 10.8352 19.8426C11.486 20.0206 12.1194 20.092 12.7356 20.0576H14.2325C14.5361 20.0313 14.7661 19.9359 14.9224 19.7711L14.9742 19.7059C15.009 19.6541 15.0416 19.5736 15.0717 19.4653C15.1022 19.3569 15.1173 19.2374 15.1173 19.1074C15.1084 18.7343 15.1368 18.3981 15.2017 18.0988C15.2666 17.7995 15.3406 17.5739 15.4233 17.4219C15.5059 17.2701 15.5992 17.142 15.703 17.0381C15.807 16.934 15.8812 16.871 15.9247 16.8493C15.9679 16.8275 16.0024 16.8126 16.0284 16.8038C16.2367 16.7344 16.4818 16.8016 16.7641 17.0057C17.0462 17.2096 17.3107 17.4614 17.5582 17.7607C17.8055 18.0602 18.1027 18.3962 18.4497 18.7693C18.797 19.1425 19.1006 19.4199 19.3608 19.6024L19.6211 19.7586C19.7949 19.8628 20.0205 19.9583 20.2982 20.0451C20.5755 20.1318 20.8184 20.1535 21.027 20.1101L24.359 20.0582C24.6886 20.0582 24.9451 20.0036 25.127 19.8953C25.3092 19.7868 25.4175 19.6673 25.4524 19.5374C25.4873 19.4073 25.4891 19.2596 25.459 19.0946C25.4282 18.93 25.3978 18.8148 25.3675 18.7498Z" fill=""/>
</g>
<defs>
<clipPath id="clip0">
<rect width="25" height="25" fill="" transform="translate(0.500031 0.5)"/>
</clipPath>
</defs>
</svg>
